<?xml version="1.0" encoding="UTF-8"?>
<svg id="_レイヤー_1" data-name="レイヤー_1" xmlns="http://www.w3.org/2000/svg" version="1.1" viewBox="0 0 595.28 841.89">
  <!-- Generator: Adobe Illustrator 29.5.1, SVG Export Plug-In . SVG Version: 2.1.0 Build 141)  -->
  <defs>
    <style>
      .st0 {
        fill: #b5b5b6;
      }
    </style>
  </defs>
  <g>
    <path class="st0" d="M494.04,654.49c-.26.69-.56,1.36-.77,2.06-1.21,3.93,1.47,7.23,5.29,6.94v-9.99c-1.51-.09-3.01.23-4.52.98Z"/>
    <path class="st0" d="M97.68,652.27v3.07c.68,2.65,3.2,4.24,6.4,3.54.84-.18,1.62-.63,2.43-.97,1.19-2.55,1.48-5.15.45-7.83.52.32,1.04.54,1.56.73v-9.8h-1.09c.31-1.6.65-3.37,1.01-5.24h.08V85.45h379.21v554.58h4.66c.26,1.91.54,3.95.77,5.6h-5.42v9.61c2.09.72,4.18.54,6.27-.75.81-2.3,2.39-4.53.47-6.92h4.1v-10.63c-.96-.06-1.98-.13-3.16-.21.98-1.59-.29-4.04,2.4-4.26.31-.03.53.01.76.04v-12.64c-.2.15-.39.25-.5.22-.55-.16-.94-.88-1.4-1.36.44-.41.88-.82,1.58-1.47.1.15.21.28.32.42V74.62H97.68v566.03c.03.11.06.26.09.37h-.09v9.26c.19-.11.39-.17.58-.3-.2.76-.42,1.52-.58,2.3ZM489.94,624.77c1.96.09,2.01,1.72,1.66,4.3-1.45-.76-2.5-1.31-3.54-1.86.63-.86,1.29-2.46,1.88-2.44ZM102.57,627.98c2.87-.05,1.6,2.59,2.46,4.25-1.72-.11-3.09-.2-4.66-.3.26-1.68-.3-3.91,2.2-3.96ZM99.26,643.07h6.46c-1.12,2.27-.29,4.62,1.04,6.89-2.82-1.52-5.65-1.38-8.47-.01,1.57-2.2,2.28-4.54.97-6.87Z"/>
    <path class="st0" d="M489.94,718.5c2.04-.05,4.04-1.99,4.05-3.94.01-2.15-1.73-3.92-3.92-3.99-.85-.03-1.65.34-2.35.87v6.18c.67.53,1.43.91,2.22.89Z"/>
    <path class="st0" d="M493.87,706.37c0,2.28,1.87,4.22,4.07,4.21.22,0,.41-.09.62-.12v-7.9c-.24-.03-.45-.11-.72-.1-2.29.04-3.97,1.7-3.97,3.92Z"/>
    <path class="st0" d="M490.04,687.12c2.7.04,4.53-1.75,4.57-4.48.04-2.77-1.82-4.69-4.64-4.76-.84-.02-1.58.23-2.25.58v8c.68.38,1.43.65,2.32.66Z"/>
    <path class="st0" d="M493.15,674.34c-.02,2.78,1.97,4.88,4.76,5.02.23.01.42-.08.64-.1v-9.59c-.19-.03-.38-.07-.58-.07-2.49-.04-4.8,2.24-4.82,4.75Z"/>
    <path class="st0" d="M489.89,734.15c1.95.04,3.66-1.64,3.65-3.61,0-2.06-1.56-3.63-3.6-3.63-.75,0-1.55.41-2.22.97v5.2c.67.6,1.45,1.06,2.17,1.08Z"/>
    <path class="st0" d="M493.58,670.2c1.42-1.4,1.77-4.26.73-6.31-1.07-2.1-3.02-2.47-5.08-2.28-.51.05-1.01.18-1.51.33v9c1.84.89,4.59.51,5.86-.74Z"/>
    <path class="st0" d="M489.78,702.91c2.36.09,4.56-1.99,4.57-4.33.02-2.62-1.96-4.52-4.66-4.47-.71.01-1.36.3-1.97.68v7.32c.63.44,1.31.77,2.06.8Z"/>
    <path class="st0" d="M493.51,690.45c.08,2.6,2.09,4.6,4.61,4.59.16,0,.29-.07.44-.09v-8.78c-.31-.04-.58-.15-.92-.14-2.33.05-4.2,2.04-4.13,4.41Z"/>
    <path class="st0" d="M377.47,757.64c-.69.96-1.76,1.83-2,2.89-.36,1.57.81,2.46,2.35,2.55,1.58.09,2.76-.76,2.54-2.33-.15-1.08-1.15-2.04-1.77-3.05-.37-.02-.75-.04-1.12-.06Z"/>
    <path class="st0" d="M442.23,758.19c-1.42-.51-2.73.61-2.67,2.13.04,1.05.96,2.06,1.48,3.09.39.05.79.1,1.18.16.76-.88,2.14-1.78,2.11-2.62-.04-.98-1.14-2.41-2.1-2.76Z"/>
    <path class="st0" d="M457.19,759.73c-.56,1.01-1.63,2.09-1.52,3.01.11.85,1.4,2.01,2.34,2.2,1.51.31,2.7-.82,2.36-2.38-.22-1.06-1.29-1.93-1.98-2.89-.4.02-.81.04-1.21.05Z"/>
    <path class="st0" d="M393.31,757.68c-.64,1-1.65,1.93-1.83,3-.27,1.6.98,2.39,2.5,2.41,1.59.01,2.7-.93,2.39-2.48-.21-1.07-1.26-1.97-1.93-2.94-.38,0-.76.01-1.13.02Z"/>
    <path class="st0" d="M495.31,754.7c-.15,1.64,1.28,2.98,2.87,2.61.12-.03.25-.12.38-.18v-5.53c-.25-.27-.51-.55-.77-.86-1.18,1.79-2.38,2.83-2.48,3.96Z"/>
    <path class="st0" d="M482.16,757.32c.08-.02.17-.09.26-.12h-1.58c.41.16.85.23,1.32.12Z"/>
    <path class="st0" d="M448.71,766.83c-.24.34-.38.75-.5,1.2h3.6c-.08-.42-.2-.82-.42-1.14-.32-.47-2.36-.51-2.69-.06Z"/>
    <path class="st0" d="M473.24,759.75c-.57,1.02-1.53,2-1.64,3.07-.17,1.63,1.24,2.52,2.63,2.14.9-.25,2.11-1.58,2.09-2.4-.02-.97-1.22-1.91-1.91-2.87-.39.02-.78.04-1.17.06Z"/>
    <path class="st0" d="M489.5,759.69c-.66.96-1.68,1.85-1.88,2.9-.31,1.6.96,2.64,2.41,2.36.93-.18,2.26-1.38,2.31-2.19.06-.97-1.06-2.01-1.66-3.02-.39-.02-.78-.03-1.18-.05Z"/>
    <path class="st0" d="M494.15,722.49c-.03,1.74,2.2,3.96,3.92,3.9.16,0,.32-.1.49-.14v-7.44c-.24-.05-.47-.16-.7-.15-1.66.03-3.68,2.11-3.7,3.83Z"/>
    <path class="st0" d="M494.52,738.48c-.04,1.47,1.82,3.49,3.3,3.58.25.02.49-.08.74-.14v-6.69c-.2-.04-.38-.13-.58-.13-1.5.01-3.42,1.88-3.46,3.39Z"/>
    <path class="st0" d="M490.19,749.8c1.49-.15,3.43-2.21,2.88-3.48-.55-1.28-1.8-2.26-3.26-3.99-.81,1.19-1.54,2.06-2.09,2.88v3.44c.7.7,1.69,1.22,2.47,1.15Z"/>
    <path class="st0" d="M329.79,758.28c-.47-.17-1.53,1.32-2.92,2.59,1.44,1.04,2.41,2.21,2.99,2.05.96-.28,1.67-1.42,2.49-2.2-.83-.87-1.54-2.08-2.56-2.44Z"/>
    <path class="st0" d="M384.69,766.78c-.29.33-.45.77-.57,1.24h3.88c-.08-.41-.2-.79-.39-.93-.71-.53-2.51-.77-2.92-.31Z"/>
    <path class="st0" d="M362.09,758.18c-1.43-.46-2.71.7-2.62,2.21.07,1.04,1.03,2.03,1.59,3.05.39.04.78.08,1.17.12.73-.9,2.09-1.84,2.03-2.68-.07-.98-1.21-2.38-2.18-2.69Z"/>
    <path class="st0" d="M400.81,766.75c-.32.33-.51.78-.66,1.28h3.87c-.07-.37-.17-.7-.34-.85-.67-.57-2.45-.87-2.88-.43Z"/>
    <path class="st0" d="M352.66,766.78c-.29.33-.45.77-.57,1.24h3.88c-.08-.41-.2-.79-.39-.94-.71-.53-2.51-.77-2.92-.31Z"/>
    <path class="st0" d="M426.15,758.18c-1.43-.46-2.71.7-2.62,2.21.07,1.05,1.03,2.03,1.59,3.05.39.04.78.08,1.18.12.73-.9,2.09-1.84,2.03-2.68-.07-.98-1.21-2.38-2.18-2.69Z"/>
    <path class="st0" d="M432.79,766.77c-.31.33-.48.78-.62,1.26h3.88c-.07-.39-.18-.74-.37-.89-.69-.55-2.48-.82-2.9-.38Z"/>
    <path class="st0" d="M336.58,766.81c-.3.29-.46.74-.58,1.22h3.95c-.09-.44-.22-.84-.42-.98-.73-.52-2.45-.72-2.95-.24Z"/>
    <path class="st0" d="M407.43,760.49c-.13,1.64.88,2.67,2.37,2.52,1.05-.11,2.03-1.04,3.03-1.6.02-.39.03-.78.05-1.18-.94-.73-1.79-1.85-2.84-2.08-1.49-.32-2.49.8-2.62,2.34Z"/>
    <path class="st0" d="M416.7,766.79c-.29.33-.44.77-.56,1.24h3.88c-.08-.42-.2-.8-.4-.95-.72-.53-2.52-.75-2.92-.29Z"/>
    <path class="st0" d="M465.88,757.27c.06,0,.11-.06.16-.07h-.48c.1.02.22.09.32.07Z"/>
    <path class="st0" d="M368.7,766.78c-.29.33-.46.77-.59,1.25h3.88c-.08-.4-.2-.77-.38-.92-.7-.54-2.5-.79-2.91-.33Z"/>
    <path class="st0" d="M346.33,757.65c-.38.01-.75.03-1.13.04-.62,1.01-1.62,1.96-1.78,3.04-.23,1.6,1.04,2.37,2.56,2.35,1.59-.01,2.67-.99,2.33-2.53-.23-1.06-1.3-1.94-1.99-2.9Z"/>
    <path class="st0" d="M102.25,706.09c2.38.1,4.42-1.72,4.47-4.01.06-2.53-1.56-4.2-4.13-4.26-2.41-.06-4.16,1.55-4.22,3.89-.06,2.23,1.77,4.29,3.88,4.38Z"/>
    <path class="st0" d="M99.21,677.97c0-1.47-.58-2.68-1.53-3.51v7.05c.94-.82,1.53-2.02,1.53-3.54Z"/>
    <path class="st0" d="M105.93,677.74c0,2.05,1.01,3.59,2.58,4.34v-8.38c-1.55.69-2.59,2.2-2.58,4.04Z"/>
    <path class="st0" d="M102.56,714.03c-1.71-.04-3.87,2.1-3.91,3.89-.04,1.71,2.15,3.96,3.86,3.96,1.8,0,3.93-2.02,4.01-3.79.09-1.94-1.94-4.01-3.96-4.06Z"/>
    <path class="st0" d="M106.57,710.04c.04,1.32.87,2.5,1.94,3.22v-6.6c-1.16.73-1.99,1.98-1.94,3.38Z"/>
    <path class="st0" d="M97.68,707.59v4.66c.53-.68.91-1.48.89-2.35-.02-.9-.38-1.66-.89-2.31Z"/>
    <path class="st0" d="M97.68,724.33v3.24c.27-.51.45-1.06.44-1.63-.01-.59-.19-1.12-.44-1.61Z"/>
    <path class="st0" d="M107.43,669.98c.06-2.65-2.17-4.9-4.9-4.94-2.61-.04-4.77,2.11-4.78,4.75-.01,2.95,2.04,5.01,5,5.01,2.66,0,4.62-2.01,4.69-4.82Z"/>
    <path class="st0" d="M98.98,659.46c-.33-.73-.79-1.2-1.3-1.58v8.1c.13-.09.3-.14.4-.24,1.39-1.28,1.81-4.25.9-6.28Z"/>
    <path class="st0" d="M106.55,657.94c-.27.92-.63,1.82-.78,2.75-.36,2.19.1,4.21,2,5.51.21.15.5.2.75.3v-9.17c-.65.19-1.31.42-1.96.6Z"/>
    <path class="st0" d="M98.94,693.91c-.05-1.22-.53-2.24-1.26-3v6.17c.81-.82,1.31-1.95,1.26-3.17Z"/>
    <path class="st0" d="M106.15,693.63c-.08,1.69.95,3.32,2.37,4.17v-7.73c-1.29.7-2.29,2.04-2.37,3.55Z"/>
    <path class="st0" d="M102.66,690.5c2.54,0,4.38-1.84,4.39-4.39.01-2.8-1.86-4.66-4.7-4.66-2.37,0-4.29,1.88-4.32,4.22-.03,2.66,2.05,4.83,4.63,4.83Z"/>
    <path class="st0" d="M108.51,757.15c-.16.27-.3.54-.36.83-.36,1.57.81,2.46,2.35,2.55,1.58.09,2.76-.76,2.54-2.33-.05-.35-.2-.68-.38-1.01h-4.14v-.04Z"/>
    <path class="st0" d="M172.24,757.76c.04,1.05.96,2.06,1.48,3.09.39.05.79.1,1.18.16.76-.88,2.14-1.78,2.11-2.62-.01-.37-.2-.79-.45-1.2h-4.21c-.04.19-.11.36-.11.57Z"/>
    <path class="st0" d="M188.35,760.19c.11.85,1.4,2.01,2.34,2.2,1.51.31,2.7-.82,2.36-2.38-.22-1.03-1.23-1.89-1.92-2.82h-1.27c-.56,1.01-1.62,2.08-1.51,3Z"/>
    <path class="st0" d="M124.16,758.13c-.27,1.6.98,2.39,2.5,2.41,1.59.01,2.7-.93,2.39-2.48-.06-.3-.19-.58-.36-.86h-4.17c-.17.3-.31.61-.37.93Z"/>
    <path class="st0" d="M293.39,766.32c-.32.45-.45,1.05-.53,1.7h3.85c-.12-.7-.27-1.31-.63-1.75-.38-.47-2.36-.43-2.7.05Z"/>
    <path class="st0" d="M277.44,766.31c-.35.44-.49,1.05-.6,1.72h3.86c-.09-.67-.22-1.28-.56-1.73-.34-.46-2.32-.46-2.7.01Z"/>
    <path class="st0" d="M181.39,764.28c-.65.9-.65,2.26-.96,3.61h4.39c-.23-1.34-.14-2.69-.74-3.56-.32-.47-2.36-.51-2.69-.06Z"/>
    <path class="st0" d="M309.49,766.33c-.32.47-.47,1.06-.58,1.7h3.75c-.15-.69-.33-1.31-.68-1.79-.31-.41-2.19-.35-2.49.08Z"/>
    <path class="st0" d="M229.41,766.3c-.32.48-.46,1.08-.56,1.73h3.8c-.09-.68-.22-1.28-.55-1.73-.34-.46-2.39-.45-2.69,0Z"/>
    <path class="st0" d="M245.44,766.3c-.36.44-.51,1.05-.63,1.73h3.86c-.08-.66-.2-1.27-.53-1.72-.33-.46-2.31-.48-2.7,0Z"/>
    <path class="st0" d="M204.28,760.26c-.17,1.63,1.24,2.52,2.63,2.14.9-.25,2.11-1.58,2.09-2.4-.02-.95-1.16-1.87-1.86-2.81h-1.22c-.57,1.02-1.53,2-1.64,3.06Z"/>
    <path class="st0" d="M252.26,760.2c.04,1.67,1.22,2.5,2.66,2.22.97-.19,1.78-1.21,2.67-1.86,0-.37,0-.74,0-1.11-.99-.64-1.93-1.68-2.98-1.82-1.57-.21-2.38,1.04-2.35,2.57Z"/>
    <path class="st0" d="M220.3,760.04c-.31,1.6.96,2.64,2.41,2.36.93-.18,2.26-1.38,2.31-2.19.06-.97-1.05-2.01-1.66-3.02h-1.22c-.66.94-1.64,1.82-1.84,2.85Z"/>
    <path class="st0" d="M284.29,760.17c.01,1.67,1.18,2.52,2.63,2.26.98-.18,1.8-1.18,2.69-1.82,0-.37,0-.74.01-1.12-.98-.65-1.9-1.7-2.95-1.85-1.56-.23-2.39,1-2.38,2.53Z"/>
    <path class="st0" d="M268.34,760.16c-.24,1.62,1.12,2.58,2.53,2.24.91-.22,2.18-1.49,2.19-2.31.02-.96-1.11-1.93-1.76-2.9h-1.23c-.61.98-1.57,1.92-1.72,2.97Z"/>
    <path class="st0" d="M238.66,757.71c-.84-.12-1.88,1.18-2.84,1.85,0,.4.02.8.03,1.2.99.58,2.03,1.68,2.97,1.6.84-.07,2.33-1.6,2.19-2.18-.23-1-1.41-2.33-2.35-2.46Z"/>
    <path class="st0" d="M316.53,760.44c.14.69,1,1.23,1.53,1.84.2-.15.39-.3.59-.45v-3.89c-2.01.04-2.37,1.24-2.12,2.5Z"/>
    <path class="st0" d="M300.31,760.06c-.05,1.67,1.05,2.58,2.52,2.36.99-.14,1.86-1.1,2.78-1.7.02-.37.04-.74.06-1.11-.95-.69-1.83-1.78-2.88-1.98-1.55-.3-2.44.88-2.48,2.42Z"/>
    <path class="st0" d="M261.33,766.36c-.31.45-.42,1.03-.49,1.67h3.85c-.14-.71-.3-1.33-.67-1.76-.39-.46-2.37-.38-2.68.09Z"/>
    <path class="st0" d="M97.68,741.53v1.25c.08-.26.13-.51.12-.75,0-.19-.08-.33-.12-.5Z"/>
    <path class="st0" d="M102.58,747.35c-1.01-.11-2.19,1.39-4.06,2.72,1.82,1.31,2.98,2.81,3.97,2.7,1.09-.12,2.02-1.72,3.03-2.67-.97-.98-1.87-2.63-2.94-2.75Z"/>
    <path class="st0" d="M106.83,725.79c-.03,1.03.72,2.17,1.68,2.95v-5.62c-.92.68-1.64,1.68-1.68,2.68Z"/>
    <path class="st0" d="M107.5,742.09c0,.53.43,1.16,1.01,1.73v-3.5c-.59.59-1.01,1.23-1.01,1.78Z"/>
    <path class="st0" d="M102.6,730.49c-1.63-.01-3.61,1.91-3.61,3.49,0,1.58,1.99,3.57,3.56,3.57,1.83,0,3.51-1.68,3.5-3.51,0-1.83-1.66-3.53-3.46-3.55Z"/>
    <path class="st0" d="M120.29,764.54c-.71-.53-2.51-.77-2.92-.31-.71.81-.72,2.23-1.02,3.4.13.13.26.26.39.39h1.33c.9-.19,1.79-.39,2.49-.87.38-.26.24-2.23-.27-2.62Z"/>
    <path class="st0" d="M136.37,764.63c-.67-.57-2.45-.87-2.88-.43-.75.76-.83,2.18-1.19,3.32.17.17.34.34.52.51h1.43c.83-.15,1.66-.32,2.29-.76.41-.29.33-2.22-.17-2.64Z"/>
    <path class="st0" d="M156.21,757.83c.07,1.05,1.03,2.03,1.59,3.05.39.04.78.08,1.18.12.73-.9,2.09-1.84,2.03-2.68-.02-.35-.21-.74-.45-1.13h-4.24c-.05.21-.12.41-.1.64Z"/>
    <path class="st0" d="M168.37,764.59c-.69-.55-2.48-.82-2.9-.38-.73.78-.78,2.21-1.11,3.36.16.15.32.3.48.46h1.49c.82-.17,1.63-.36,2.25-.81.41-.3.29-2.23-.21-2.63Z"/>
    <path class="st0" d="M140.12,757.94c-.13,1.64.88,2.67,2.37,2.52,1.05-.11,2.03-1.04,3.03-1.6.02-.39.03-.78.05-1.18-.19-.15-.38-.32-.56-.48h-4.72c-.07.24-.15.47-.18.74Z"/>
    <path class="st0" d="M152.31,764.53c-.72-.53-2.52-.75-2.92-.29-.71.81-.7,2.24-1,3.41.12.13.25.25.37.38h1.36c.89-.2,1.77-.41,2.47-.89.38-.26.23-2.24-.28-2.61Z"/>
    <path class="st0" d="M213.32,766.32c-.32.45-.45,1.05-.53,1.7h3.85c-.12-.69-.27-1.31-.63-1.75-.38-.47-2.36-.43-2.7.05Z"/>
    <path class="st0" d="M197.28,766.34c-.31.45-.43,1.04-.51,1.68h3.85c-.13-.7-.29-1.32-.65-1.76-.39-.46-2.36-.4-2.69.07Z"/>
    <path class="st0" d="M104.29,764.56c-.7-.54-2.5-.79-2.91-.33-.72.8-.74,2.22-1.05,3.39.15.14.3.28.46.42h1.53c.81-.18,1.62-.38,2.22-.84.41-.31.27-2.23-.24-2.63Z"/>
  </g>
  <g>
    <path class="st0" d="M422.92,647.28c-.28.81-.56,1.5-.81,2.2-.33.91-.51,1.91-.97,2.74-.73,1.32-.64,2.73-.67,4.11-.01.62.37,1.28.66,1.87.22.47.37.9.32,1.43-.02.24.12.5.18.75.13.54.23,1.1.39,1.63.2.68.29,1.37.77,1.98.78.99.92,2.26,1.29,3.43.44,1.38.78,2.79,1.15,4.19.17.61.34,1.22.48,1.83.25,1.07.69,2.05,1.26,2.98.27.44.46.94.6,1.44.53,1.93,1.07,3.87,1.53,5.82.31,1.31.54,2.65.71,3.99.12.92.05,1.86.09,2.8.02.57.08,1.15.14,1.72,0,.06.18.16.26.15.08,0,.19-.13.2-.21.14-.8.24-1.61.41-2.41.18-.85.3-1.74.66-2.52.38-.82.17-1.51-.03-2.29-.27-1.03-.39-2.08-.41-3.16-.02-1.21-.21-2.42-.38-3.62-.28-1.97-.58-3.95-.95-5.91-.13-.72-.3-1.44-.65-2.13-.63-1.23-1.15-2.52-1.14-3.96,0-.42-.15-.92-.4-1.26-.93-1.23-1.01-2.72-1.4-4.11-.29-1.04-.45-2.12-.65-3.19-.06-.3-.09-.61-.07-.91.07-.97-.05-1.9-.27-2.85-.13-.56-.12-1.26.11-1.77.29-.65.2-1.3.33-1.94.2-1.01.4-2.02.68-3.01.16-.58.83-.55,1.27-.7.5-.17.62.34.71.71.04.16-.01.41-.12.54-.71.89-.92,1.92-.92,3.03,0,.36-.22.72-.28,1.09-.06.31-.18.74-.04.94.32.43.14.85.12,1.26-.08,1.54.05,3.05.43,4.56.26,1.02.37,2.07.55,3.1.03.18.07.38.16.53.83,1.41,1.06,3.01,1.44,4.56.2.8.38,1.62.85,2.29.56.79.59,1.7.77,2.56.27,1.25.44,2.52.63,3.78.16,1.09.28,2.18.39,3.27.11,1.1.19,2.21.28,3.31,0,.07.07.13.1.2.06-.05.13-.09.18-.15.08-.12.19-.25.22-.39.15-.92.26-1.85.43-2.77.2-1.05.29-2.16.72-3.11.31-.67.17-1.21.02-1.74-.21-.71-.39-1.38-.33-2.12.03-.37,0-.81-.18-1.1-.76-1.17-.75-2.45-.73-3.76.01-.67-.06-1.38-.28-2.01-.38-1.09-.63-2.26-.5-3.32.19-1.59-.35-2.97-.64-4.44-.03-.15-.09-.29-.08-.44.03-1.81.06-3.63.09-5.44.01-.63.11-1.19.82-1.45.2-.07.35-.31.5-.49.35-.39,1.1-.38,1.33.05.06.11.01.4-.08.47-.81.56-.88,1.39-.95,2.27-.16,1.88.04,3.74.18,5.6.04.58.31,1.14.4,1.75.09.59.11,1.16.06,1.73-.06.75.01,1.46.37,2.11.39.71.34,1.46.36,2.24.03,1.33.04,2.67.42,3.96.05.15.17.28.27.42.08-.15.22-.28.24-.44.2-1.44.62-2.82.98-4.22.21-.82.26-1.68.42-2.52.24-1.33.3-2.68.71-3.98.14-.45.03-.96.12-1.43.15-.82.36-1.63.55-2.45.03-.11.08-.22.09-.33.17-1.4.39-2.8.49-4.21.11-1.51.37-2.93.93-4.37.58-1.49,1.1-3.03,1.53-4.57.16-.56.52-.61.86-.67.3-.06.7.74.58,1.14-.1.35-.21.75-.44,1.02-.96,1.11-.98,2.58-1.57,3.82-.41.87-.24,1.8-.55,2.69-.22.63.16,1.46.27,2.21.07.46.34.84,0,1.41-.39.66-.09,1.5.08,2.25.06.26.2.57.11.77-.74,1.59-.14,3.24-.27,4.86-.01.15.21.31.32.47.05-.14.14-.28.14-.42,0-1.22.41-2.31.84-3.42.37-.95.51-1.98.77-2.97.07-.25.15-.51.29-.72.33-.53.94-.63,1.11-.16.21.63.59.45.99.42.48-.05.75.14.74.56-.02,1.77-.05,3.55-.09,5.32-.03,1.12-.24,2.24.26,3.32.1.22-.03.55-.03.83-.02,1.53-.04,3.07-.04,4.6,0,.29.06.64.24.85.61.73.75,1.63,1,2.49.03.12.14.22.21.33.09-.1.18-.19.26-.29.02-.03,0-.08.01-.12.27-3.12.56-6.25.81-9.38.02-.29-.13-.58-.16-.88-.06-.61-.08-1.22-.14-1.83-.11-1.2,0-2.43-.54-3.58-.42-.9-.61-1.88-.5-2.88.15-1.29-.1-2.49-.53-3.7-.31-.87-.62-1.79-.53-2.76.04-.41.21-.67.64-.66.42.01,1.02-.08,1.05.5.09,1.9,1.17,3.63.88,5.58-.03.23-.06.49.02.7.05.13.12.4.49.19.89-.53,1.33-.21,1.32.78-.01.97.13,1.96.02,2.91-.1.82-.17,1.64-.1,2.45.17,1.93-.05,3.9.52,5.81.18.61.22,1.3.15,1.94-.06.57.16.99.43,1.39.69,1,.58,2.17.73,3.27.13,1.04.05,2.1.08,3.16,0,.13.1.25.15.38.11-.12.27-.22.31-.36.41-1.39.99-2.73,1.01-4.22,0-.48.2-.96.31-1.45.34-1.49.97-2.9,1.01-4.46.03-1.28.32-2.51.69-3.74.14-.49.24-1.09.08-1.54-.29-.8-.1-1.54.01-2.3.05-.33.03-3.36-.09-3.71-.26-.77-.53-1.54-.82-2.3-.2-.54.1-.97.68-1.05.83-.11,1.46.64,1.68,1.61.19.85.3,1.72.32,2.59.02.92-.12,1.84-.14,2.76-.01.57.04,1.15.13,1.72.2,1.19-.26,2.27-.5,3.39-.12.57-.44,1.22-.26,1.69.34.91-.02,1.67-.22,2.46-.28,1.08-.74,2.11-1.1,3.17-.09.26-.09.55-.09.82.03,1.37-.35,2.64-.87,3.91-.38.94-.41,2.02-.79,2.96-.69,1.71.04,3.28.31,4.89.14.81.31,1.62.47,2.42.04.18.05.37.12.55.03.08.15.13.24.2.03-.07.09-.13.09-.2.07-1.79,1.09-3.27,1.59-4.92.08-.25.2-.51.21-.76.05-1.94.66-3.75,1.32-5.55.19-.52.52-1.04.56-1.57.11-1.67.81-3.15,1.26-4.71.24-.81.26-1.68.42-2.52.21-1.09.47-2.17.67-3.26.07-.41.01-.84.06-1.25.15-1.24.36-2.47.48-3.72.05-.48-.07-.98-.14-1.48-.1-.83-.21-1.65-.33-2.47-.1-.74-.42-1.36-.92-1.92-.5-.56-.49-.98-.03-1.4.46-.42.9-.46,1.37.15.54.71,1.03,1.52,1.28,2.37.27.89.26,1.88.34,2.82.06.77.2,1.57.07,2.31-.17.97-.17,1.99-.62,2.91-.06.13-.08.33-.04.47.46,1.34-.18,2.53-.47,3.78-.21.91-.28,1.84-.43,2.76-.07.41-.14.84-.32,1.2-.55,1.11-.67,2.32-.95,3.5-.29,1.19-.77,2.34-1.15,3.51-.14.43-.24.88-.33,1.32-.27,1.4-.34,2.87-.85,4.17-.35.91-.86,1.81-1.2,2.75-.29.81-.46,1.67-.71,2.5-.21.72-.49,1.41-.69,2.14-.13.48-.18.99-.24,1.49,0,.07.12.2.19.21.08.01.24-.07.26-.14.17-.5.28-1.02.48-1.5.33-.79.71-1.55,1.07-2.32.79-1.68,1.62-3.34,2.34-5.04.29-.69.27-1.51.52-2.23.38-1.12.88-2.21,1.31-3.32.47-1.22.92-2.45,1.24-3.74.24-.99.82-1.9,1.2-2.87.56-1.38,1.15-2.75,1.59-4.17.43-1.42.7-2.88,1.01-4.34.25-1.16.5-2.32.69-3.5.06-.39-.11-.82-.14-1.23-.02-.24-.04-.51.05-.72.43-.96.08-1.77-.3-2.65-.26-.61-.34-1.31-.37-1.98-.03-.59-.26-1.03-.64-1.43-.25-.27-.49-.6-.25-.93.38-.52.93-.58,1.43-.31.93.51.87,1.47.87,2.26,0,.97.11,1.82.69,2.6.08.11.13.28.13.42,0,1.49.1,3-.07,4.48-.15,1.39-.46,2.78-.95,4.1-.4,1.1-.59,2.26-.92,3.38-.32,1.08-.72,2.11-1.24,3.11-.27.52-.35,1.15-.52,1.73-.06.22-.05.48-.17.66-.78,1.2-.93,2.61-1.34,3.93-.37,1.16-.96,2.25-1.39,3.4-.53,1.44-.95,2.92-1.5,4.34-.61,1.59-1.29,3.16-2,4.71-.26.57-.71,1.05-1.03,1.6-.76,1.3-.67,2.81-.99,4.22-.08.37-.29.72-.29,1.09,0,.81.08,1.61.14,2.42.01.18.09.36.14.54.05.17.1.34.15.5.19-.16.54-.31.55-.48.05-.82.85-1.41.66-2.29-.02-.08.08-.21.15-.29.94-1.11,1.25-2.45,1.57-3.82.16-.67.39-1.47.87-1.9.75-.67.92-1.57,1-2.36.11-1.2.68-2.16,1.12-3.19.37-.89.96-1.68,1.32-2.57.61-1.52,1.04-3.1,1.82-4.56.23-.42.34-.93.38-1.42.2-2.1,1.1-3.98,1.77-5.94.55-1.6.87-3.29,1.34-4.92.4-1.41.79-2.82,1.32-4.18.47-1.19.65-2.43.84-3.67.04-.24,0-.49.05-.72.43-1.82-.44-3.21-1.46-4.56-.36-.48-.64-1-.87-1.58-.27-.67.08-.94.45-1.08.4-.16.95-.2,1.27.3.39.61.78,1.22,1.16,1.84.27.45.54.91.77,1.38.28.58.72,1.1.49,1.84-.09.3-.06.64-.07.96-.05,2.14-.53,4.18-1.34,6.15-.24.59-.53,1.2-.57,1.81-.06,1.03-.56,1.87-.92,2.78-.26.66-.49,1.35-.61,2.05-.22,1.28-.63,2.45-1.16,3.65-.54,1.23-.68,2.64-1.02,3.96-.18.69-.26,1.46-.63,2.04-.95,1.46-1.22,3.13-1.73,4.73-.16.52-.46,1.04-.82,1.45-.79.88-1.18,1.88-1.41,3.04-.25,1.23-.44,2.47-1.31,3.58-.7.89-.86,2.2-1.25,3.33-.06.18.05.47-.06.59-1.08,1.26-1.14,2.99-1.99,4.35-.83,1.32-1.13,2.83-1.17,4.37,0,.23.23.58.44.68.27.12.57.15.81-.33.88-1.8,1.87-3.54,2.67-5.38,1.3-2.99,2.69-5.95,3.98-8.94.71-1.64,1.2-3.38,1.97-4.98.56-1.16.57-2.48,1.28-3.59.27-.42.42-1,.43-1.51.04-1.34.8-2.35,1.46-3.38.45-.69.63-1.47.8-2.2.43-1.88,1.12-3.65,2.08-5.3.51-.89.81-1.87.82-2.79.02-1.72.7-3.21,1.13-4.8.21-.77.51-1.54.54-2.32.03-.81.24-1.55.71-2.14.42-.54.41-1.32,1.09-1.71.46-.26,1.13-.31,1.46.09.08.09,0,.41-.12.55-.92,1.14-.89,2.69-1.68,3.89-.15.23,0,.65-.09.95-.42,1.4-1.08,2.73-1.26,4.21-.04.37-.23.73-.26,1.11-.09,1.27-.51,2.41-1.1,3.55-.83,1.62-1.68,3.27-1.89,5.15-.07.61-.36,1.22-.64,1.78-.44.9-.98,1.75-1.42,2.65-.21.43-.35.92-.44,1.39-.37,1.77-1.08,3.42-1.7,5.1-.58,1.57-1.2,3.13-1.82,4.69-.7,1.76-1.49,3.48-2.27,5.2-.71,1.59-1.5,3.15-2.18,4.75-.5,1.16-1.03,2.3-1.63,3.41-.62,1.16-.93,2.4-.42,3.72.09.24.1.53.09.79-.04.84-.09,1.68-.15,2.52-.06.81-.14,1.59.45,2.33.28.36.21,1.01.27,1.54.02.2,0,.4-.03.6-.32,1.95.15,3.79.76,5.62.23.7.38,1.44.55,2.16.03.14.05.28.07.42-.19.01-.48.12-.55.03-.43-.5-.97-1-1.16-1.59-.33-1.06-.59-2.14-1-3.19-.25-.65-.17-1.44-.19-2.16-.01-.48.04-.96.08-1.44.06-.6.05-1.11-.43-1.64-.44-.49-.54-1.19-.34-1.92.16-.61.11-1.27.14-1.92.06-1.06-.11-1.25-1.15-1.09-1.67.27-3.32.59-4.99.88-.12.02-.25.01-.36-.02-.84-.27-1.71-.02-2.57-.14-.28-.04-.59.1-.89.12-.73.06-1.45.12-2.18.15-.85.04-1.71.02-2.56.1-.67.06-1.33.29-1.99.33-1.01.07-2.02.06-3.04.06-.69,0-1.38-.17-2.09.09-.24.09-.59-.13-.89-.15-.89-.06-1.77-.1-2.66-.14-.23,0-.49.12-.68.04-1.32-.57-2.74-.28-4.1-.48-.14-.02-.36-.02-.44.06-.3.34-.72.51-1.06.29-.42-.27-.8-.67-1.06-1.11-.44-.75-.31-1.51.35-2.17.38-.38.22-.65.05-1.02-.83-1.83-1.3-3.79-1.9-5.7-.32-1.03-.42-2.12-.71-3.17-.45-1.65-.9-3.28-1.58-4.87-.84-1.95-1.44-3.99-1.63-6.15-.07-.84-.31-1.74-.73-2.56-.46-.88-.84-1.84-1.02-2.81-.2-1.05-.44-2.03-1.03-2.95-.31-.49-.43-1.1-.59-1.67-.32-1.11-.65-2.21-.89-3.34-.26-1.21-.74-2.33-1.24-3.46-.62-1.4-1.13-2.83-1.33-4.36-.01-.11-.04-.22-.09-.32-.63-1.21-.87-2.53-1.12-3.85-.05-.26-.13-.51-.16-.77-.08-.75,0-1.53-.58-2.16-.14-.15-.2-.41-.2-.63-.1-3.03.61-5.72,3.29-7.55.25-.17.84-.02,1,.32.15.33.41.82-.14.93-.88.19-1.35.81-1.84,1.43-.14.18-.35.38-.35.56.01,1.38-.91,2.58-.75,3.98.05.41.08.83.17,1.24.25,1.16.52,2.32.93,3.44.57,1.57.97,3.19,1.52,4.77.61,1.71,1.38,3.37,1.95,5.09.5,1.51.8,3.09,1.24,4.63.3,1.03.76,2.02,1.02,3.06.48,1.95,1.25,3.8,1.86,5.71.25.78.5,1.61.48,2.41-.04,1.3.33,2.5.81,3.61.91,2.11,1.27,4.36,1.81,6.55.62,2.47,1.56,4.8,2.37,7.19.08.25.21.48.36.7.08.11.25.16.37.24.07-.16.22-.35.19-.49-.24-.86-.42-1.75-.81-2.54-.86-1.72-.96-3.6-1.37-5.42-.34-1.52-.47-3.09-1.02-4.58-.55-1.49-.86-3.07-1.27-4.62-.39-1.47-.78-2.94-1.41-4.34-.12-.27-.16-.58-.19-.87-.11-1.24-.37-2.48-.58-3.7-.23-1.39-.55-2.86-1.46-4.07-.82-1.1-.92-2.45-1.09-3.73-.17-1.28-.17-2.55-1.06-3.65-.38-.48-.41-1.26-.53-1.91-.11-.56-.3-1.06-.52-1.59-.42-1.02-.6-2.14-.88-3.22-.14-.54-.21-1.11-.39-1.63-.25-.69-.42-1.37-.36-2.12.04-.4-.1-.82-.15-1.24-.13-1.04.53-1.8,1-2.6.25-.43.84-.56.76-1.32-.05-.47,1.74-.69,2.18-.29.23.21.06.28-.06.43-.42.49-.77,1.04-1.22,1.5-.82.86-1.58,1.71-1.01,3.02-.37,1.92,1.01,3.57.87,5.46,0,.06.07.13.11.2.59,1.01.77,2.16,1.09,3.27.18.64.51,1.24.72,1.87.21.63.42,1.28.51,1.94.3,2.16.6,4.3,1.86,6.19.35.53.47,1.27.52,1.92.11,1.66.53,3.26.97,4.84.27.96.69,1.88.97,2.84.43,1.42.81,2.86,1.18,4.3.48,1.87.96,3.75,1.38,5.64.34,1.57.55,3.18.89,4.75.17.79.54,1.54.8,2.31.13.39.22.79.38,1.16.04.1.25.14.39.2.05-.1.12-.2.13-.3.16-1.2.43-2.4.44-3.61.01-1.24-.11-2.49-.44-3.71-.15-.54-.14-1.14-.15-1.71-.04-2.06-.12-4.11-.69-6.11-.39-1.39-.79-2.78-1.19-4.18-.21-.75-.46-1.49-.62-2.26-.17-.84-.68-1.5-1.04-2.23-.36-.72-.51-1.54-.73-2.33-.36-1.32-.97-2.56-1.23-3.93-.23-1.24-.62-2.45-.94-3.67-.06-.21-.08-.46-.21-.63-.97-1.3-1.34-2.85-1.62-4.38-.22-1.19-.5-2.32-1.03-3.42-.3-.62-.27-1.4-.33-2.11-.06-.69.02-1.38-.05-2.08-.08-.73.3-1.54.61-2.26.35-.81.86-1.56,1.3-2.33.34-.6.59-1.2.64-1.93.04-.56.35-1.14.64-1.65.29-.52.82-.57,1.36-.44.1.03.21.18.24.3.14.7-.17,1.18-.81,1.58M444.35,671.16c-.05-1.52-.89-2.9-.75-4.44-.47-.57,0-1.01.24-1.46.39-.73.38-.91.29-1.82-.1-.94-.09-1.89-.08-2.83,0-.25.17-.49.23-.75.04-.18.1-.41.02-.56-.43-.84-.32-1.73-.27-2.62.01-.25-.06-.54-.2-.74-.15-.23-.41-.27-.47.11-.32,1.91-1.27,3.66-1.14,5.7.07,1.08-.43,2.22-.76,3.31-.44,1.42-.73,2.82-.39,4.31.14.63.13,1.3.12,1.95,0,.28-.26.56-.27.85-.05,1.77-.07,3.55-.1,5.32,0,.11.06.21.09.32.14-.05.36-.05.4-.15.13-.27.25-.57.25-.86,0-1.14.38-2.19.71-3.25.13-.43.68-.63,1.07-.4.29.18.49.37.16.84-.3.43-.29,1.09-.41,1.65-.23,1.08-.36,2.2-.73,3.24-.19.54-.33,1.06-.28,1.58.18,1.84-.88,3.59-.37,5.45.03.11-.12.27-.16.41-.06.26-.23.64-.12.77.38.46.11.92.12,1.38.04,1.05-.11,2.14.1,3.15.16.73.02,1.4.06,2.09.04.73.1,1.46.1,2.2,0,1.57-.11,3.15-.01,4.72.04.69.19,1.31-.14,1.97-.14.28.06.42.38.32.21-.07.44-.16.65-.14.58.06.75-.17.95-.73.66-1.93.54-3.97,1.04-5.92.1-.37-.13-.82-.13-1.23-.01-1.45.02-2.91.02-4.36,0-.23-.06-.45-.07-.68-.02-.39-.18-.85-.03-1.14.5-.94.02-1.66-.39-2.4-.44-.8-.82-1.58-.82-2.56,0-.59.06-.93.59-1.19.21-.1.5-.35.5-.53,0-1.67.58-3.31.12-5.01-.19-.69-.13-1.46-.12-2.19,0-1.19.06-2.37-.02-3.69M439.22,662.52c-.41-.6-.27-1.26-.26-1.91,0-.09-.16-.19-.25-.29-.07.07-.19.14-.21.22-.15.92-.29,1.84-.42,2.77-.04.32,0,.65-.08.96-.29,1.17-.66,2.33-.92,3.51-.3,1.39-.48,2.81-.77,4.21-.13.62-.41,1.2-.57,1.82-.05.19.05.45.14.65.52,1.18.57,2.43.54,3.69,0,.36-.06.72-.05,1.08,0,.09.17.18.26.27.07-.08.18-.15.19-.23.25-1.24.58-2.48.7-3.73.13-1.47.64-2.8,1.16-4.14.51-1.33.64-2.69.42-4.1-.05-.33.17-.7.23-1.06.05-.29.28-.46.14-.91-.26-.82-.12-1.76-.27-2.78M439.29,674.94c-.03-.13.05-.54-.21-.22-.29.35-.48.85-.56,1.32-.2,1.11-.28,2.25-.48,3.36-.12.66-.43,1.28-.57,1.94-.18.83-.47,1.7-.36,2.51.08.63.05,1.23.07,1.84.01.27-.04.57.06.8.52,1.25.48,2.55.39,3.86-.06.82.04,1.65.08,2.47,0,.08.12.16.18.24.1-.08.27-.15.29-.25.14-.68.22-1.37.39-2.04.24-.99.56-1.96.79-2.94.21-.9.56-1.83.46-2.71-.1-.86-.26-1.71-.32-2.59-.05-.66-.21-1.25.16-1.85.07-.11.02-.31-.01-.46-.42-1.66-.59-3.33-.34-5.28M448.87,679.88c.07.17.19.34.2.51.08,1.16.41,2.27.77,3.37.05.15.24.26.37.38.12-.15.3-.28.34-.45.24-.92.45-1.84.66-2.76.11-.47.36-.99.25-1.42-.64-2.56-.47-5.2-.88-7.78-.14-.88-.22-1.79-.73-2.56-.07-.11-.25-.16-.37-.24-.07.12-.18.24-.19.36-.06.72-.17,1.44-.12,2.15.04.52-.27.94-.16,1.49.1.48-.27,1.03-.27,1.55,0,.98-.19,1.94-.25,2.91-.05.82.44,1.46.38,2.47M440.29,697.68c-.05-.45-.15-.9-.15-1.35,0-1.61.04-3.22.04-4.83,0-.23-.11-.47-.17-.7-.18.21-.38.41-.54.64-.06.09-.01.24-.03.35-.12.72-.16,1.48-.39,2.16-.57,1.65-.99,3.31-1.01,5.06-.01.97.06,1.94.05,2.91-.01,1.09.4,1.38,1.44.98.54-.2.73-.58.74-1.11,0-1.29,0-2.58.02-4.11M434.77,689.37c.03-.44-.05-.92.1-1.31.6-1.56.68-3.18.76-4.81.04-.69.06-1.34-.28-2.02-.25-.51-.13-1.2-.21-1.8-.05-.34.33-.81-.21-.97-.07-.02-.38.56-.48.89-.09.3-.02.64-.08.95-.17.82-.43,1.62-.55,2.44-.15,1.03-.7,1.99-.32,3.14.2.6.56,1.41-.08,2.07-.04.04-.04.17-.02.23.42.92.02,1.86.06,2.79,0,.19-.03.41.06.56.08.14.3.22.45.32.06-.13.14-.25.18-.39.17-.66.33-1.32.62-2.1M435.05,700.49c.04.69.06,1.38.13,2.07.02.17.2.32.31.48.14-.17.36-.33.39-.52.1-.58.02-1.21.19-1.77.47-1.54.44-3.14.41-4.7-.02-1.17-.3-2.35-.21-3.54.08-1,.13-1.99.18-2.99,0-.13-.08-.27-.12-.41-.17.08-.39.12-.49.26-.1.14-.09.36-.14.55-.29,1.17-.6,2.34-.88,3.51-.17.71-.4,1.42-.41,2.13,0,1.02.14,2.04.28,3.06.07.55.24,1.09.36,1.87M447.31,685.57c.27.95.29,1.96-.04,2.83-.23.62-.13,1.12.03,1.6.28.84.71,1.64,1.09,2.44.05.1.15.25.23.26.14,0,.4-.08.41-.15.13-1.57.16-3.14.52-4.69.09-.37-.23-.84-.37-1.26-.34-1.02-.67-2.04-1.02-3.05-.04-.1-.21-.16-.32-.23-.05.09-.14.18-.15.28-.09.62-.16,1.24-.37,1.97M432.47,693.45c0-.51,0-1.01-.03-1.52-.03-.49-.09-.98-.15-1.47-.02-.13-.08-.25-.12-.38-.12.11-.32.2-.34.32-.07.39.07.88-.12,1.18-.55.91-.57,1.91-.63,2.9-.01.16.02.34-.04.48-.58,1.35-.1,2.66.15,3.98.1.52.15,1.04.24,1.56.02.13.11.24.17.36.13-.07.34-.1.39-.21.11-.24.14-.51.2-.77.15-.75.3-1.51.43-2.26.12-.69.31-1.38.3-2.07,0-.66-.21-1.33-.45-2.12M452.81,692.06c.16-.62.35-1.24.47-1.87.13-.71.35-1.44.28-2.13-.18-1.72-.51-3.42-.79-5.13-.02-.11-.17-.19-.25-.29-.07.07-.19.13-.21.22-.34,1.44-.75,2.88-.96,4.34-.09.63.16,1.34.33,1.98.27.96.33,1.99,1.14,2.88M449.84,697.19c.22.51.43,1.02.68,1.52.06.11.24.16.37.23.06-.12.17-.24.19-.37.12-1.06.37-2.07.87-3.03.08-.16.13-.41.07-.57-.33-.9-.69-1.79-1.05-2.68-.06-.14-.2-.24-.31-.36-.05.14-.12.27-.15.41-.13.68-.24,1.36-.37,2.04-.09.44-.18.89-.33,1.32-.16.45-.11.9.04,1.49M447.3,701.25c.06-.96-.1-1.99.23-2.85.58-1.53.12-2.9-.28-4.3-.04-.15-.27-.26-.41-.38-.1.2-.34.44-.29.58.38,1.01.04,2.02.02,3.03-.02,1.12-.14,2.23-.19,3.34-.01.3,0,.62.09.9.12.36-.06.97.57.94.1,0,.17-.66.27-1.26M445.7,676.55c.27,1.05.2,2.12.02,3.15-.17.98-.06,1.95-.14,2.93-.04.52.06,1.07.15,1.59.02.09.33.21.47.18.47-.09,0-.23,0-.35.06-.92.01-1.86.21-2.75.1-.45.16-.79.07-1.26-.09-.45.15-.97.25-1.46.03-.15.09-.32.07-.46-.13-.62-.28-1.24-.43-1.85-.13-.5-.27-1-.42-1.5-.03-.1-.15-.18-.23-.27-.05.09-.08.21-.15.28-.56.57-.15,1.04.13,1.76M451.88,701.29c.32.69.39.72.73.24.21-.29.34-.67.4-1.02.12-.74.63-1.42.29-2.26-.1-.25-.11-.38-.41-.4-.4-.03-.34.23-.35.46-.03.96-.37,1.85-.67,2.99M433.82,700.89c0-.12.51-.2.05-.34-.23-.07-.72.03-.73.08-.07.82-.11,1.64-.08,2.46,0,.12.43.22.66.33.07-.2.26-.48.19-.58-.4-.56-.05-1.14-.1-1.95M448.82,700.14c.44.54.13,1.14.12,1.7-.01.5.31.35.54.39.27.05.47,0,.44-.34-.07-.75-.06-1.55-1.1-1.75M453.69,695.38c.18.21.36.41.55.62.06-.28.15-.56.19-.84.04-.31.07-.63.05-.94-.01-.17-.12-.35-.22-.49-.05-.08-.2-.14-.29-.12-.07.01-.16.15-.17.24-.04.43-.06.86-.1,1.54M430.25,702c-.02-.26-.01-.53-.08-.78-.05-.17-.22-.3-.33-.44-.13.14-.32.26-.36.43-.09.29.02.69-.15.9-.33.41.09.52.22.56.42.12.76-.03.71-.66M452.13,704.92c-.09.36.15.41.41.38.33-.04.67-.1.99-.18.11-.03.2-.16.29-.25-.11-.08-.22-.22-.33-.21-.41.02-.82.1-1.36.26M455.63,699.11c-.13-.11-.26-.22-.39-.34-.03.18-.07.36-.1.55.16,0,.32.02.5-.21Z"/>
    <path class="st0" d="M426.66,723.78c-.13.19-.17.35-.26.45-1.09,1.13-1.27,3.02.34,4.19.75.55,1.36,1.2,2.37,1.27.32.02.63.38.93.61.44.33.21.8-.11.79-.89-.03-.8.65-.66,1,.31.8.01,1.56.06,2.33,0,.12.04.29-.03.35-.45.44-.67.92-.52,1.56.13.54.23,1.1.32,1.65.03.15,0,.32-.03.48-.3,1.67.33,3.27.42,4.91.02.42.19.67.64.34.65.52,1.63.07,2.23.77.06.07.2.1.31.11,1.32.17,2.65.31,3.97.5.53.07,1.06-.05,1.59.29.27.17.8-.13,1.21-.11,1.16.04,2.32.11,3.48.22.41.04.82.33,1.2.28,1.5-.18,2.99.07,4.48.03,1.12-.03,2.24-.46,3.35-.45,1.33.02,2.52-.42,3.74-.79.32-.1.92-.08.79-.74,0-.03.03-.07.06-.09,1.06-.56,1.61-1.82,2.91-2.08.24-.05.55-.53.56-.82.04-1.04,0-2.09-.08-3.14-.05-.67-.24-1.34-.29-2.01-.11-1.34-.16-2.69-.24-4.03-.02-.37-.78-.53-1.22-.25-.32.2-.68.37-.95.63-.89.85-1.97.98-3.11.89-1.67-.13-3.33-.05-5,.14-.86.09-1.76-.22-2.64-.38-.07-.01-.17-.3-.13-.37.13-.21.3-.47.51-.53.3-.08.67-.07.94.06.31.14.54-.08.8-.09,1.62-.05,3.23-.2,4.85-.08.69.05,1.38-.06,2.08-.1.09,0,.23-.07.27-.15.31-.68.94-.74,1.56-.97,1.18-.43,2.35-.96,2.55-2.49.05-.36.48-.67.74-.99.49-.6.8-1.26.88-2.05.08-.77.22-1.53.39-2.28.05-.2.31-.42.53-.5.35-.13.35.23.51.43.43.57.2,1.08.09,1.68-.17.9-.29,1.81-.68,2.64-.13.27-.23.62-.45.76-.79.49-.93,1.2-.93,2.03,0,1.73-.26,3.5,0,5.19.2,1.37.19,2.78.57,4.14.29,1.02-.31,1.97-.4,2.96,0,.03-.05.07-.09.08-.66.16-.88.67-1.21,1.22-.3.49-1.01.83-1.61,1.01-1.04.32-1.78,1.03-2.63,1.62-.61.42-1.45.58-2.2.72-.75.13-1.54.08-2.31.12-.45.03-.9.11-1.36.15-.53.05-1.06.13-1.6.14-1.17.03-2.35,0-3.52.03-1.13.03-2.27-.41-3.4.02-.81-.58-1.76-.29-2.65-.38-1.66-.18-3.33-.16-4.95-.77-.89-.33-1.92-.29-2.87-.47-.63-.12-1.3-.21-1.84-.52-.74-.42-.72-1.29-.81-2.05-.04-.31.05-.64.05-.96,0-1.17.03-2.35-.04-3.52-.03-.59-.25-1.16-.4-1.74-.18-.71-.26-1.38-.11-2.14.14-.72-.08-1.51-.16-2.27-.02-.22-.08-.45-.1-.67-.04-.73-.31-1.28-1.01-1.65-.46-.24-.82-.69-1.2-1.08-.15-.15-.29-.39-.3-.59-.08-1.48-.64-2.93.41-4.41.61-.86,1.19-1.9,1.33-3.05.03-.2.21-.39.31-.59.08-.17.22-.34.22-.51-.01-.61-.07-1.22-.11-1.84-.04-.63-.04-1.26-.13-1.88-.14-.96-.35-1.91-.54-2.87-.01-.07-.02-.16-.06-.21-.94-1.33-.96-1.52-.51-3.06.06-.22-.12-.5-.11-.74.01-.29.02-.67.2-.83.32-.28.82-.27,1.08.06.28.36.51.85.56,1.3.06.67-.05,1.36-.1,2.04-.08,1.04-.18,2.07.27,3.08.19.43.13.97.17,1.47.1,1.04-.08,2.09.23,3.13.1.34-.26.8-.24,1.19.07,1.22-.55,2.19-1.13,3.26Z"/>
    <path class="st0" d="M478.62,652.25c-.93.13-1.32-.07-1.69-.84-.19-.4-.36-.81-.48-1.24-.23-.8-.65-1.4-1.39-1.86-.64-.4-1.18-.98-1.72-1.52-.15-.15-.23-.49-.16-.68.07-.2.33-.43.54-.47.86-.17,1.41.43,2.01.9,1.38,1.07,2.16,2.47,2.53,4.15.06.28.34.51.43.79.07.22,0,.48-.08.78Z"/>
    <path class="st0" d="M432.92,730.86c.95.44,1.83.62,2.77.67,1.21.07,2.4.29,3.6.46.11.02.2.16.29.25-.07.08-.13.2-.21.22-.37.08-.74.17-1.11.17-.64,0-1.28-.13-1.92-.09-.59.03-1.15-.09-1.72-.13-.73-.05-1.46,0-2.1-.53-.23-.19-.71-.03-1.02-.17-.22-.1-.5-.42-.49-.62.02-.2.37-.52.58-.52.4-.01.89-.17,1.32.29Z"/>
    <path class="st0" d="M461.35,648.89c-.36.08-.5-.07-.37-.34.06-.12.27-.18.4-.26,0,.18.02.36-.04.6Z"/>
    <path class="st0" d="M465.16,649.6c-.36.08-.5-.07-.37-.34.06-.12.27-.18.4-.26,0,.18.02.36-.04.6Z"/>
    <path class="st0" d="M454.8,653.36c0,.08-.04.15-.09.22.01-.07.02-.15.09-.22Z"/>
    <path class="st0" d="M454.92,653.37c0-.08.04-.15.09-.22-.01.07-.02.15-.09.22Z"/>
  </g>
  <g>
    <path class="st0" d="M176.97,100.5c.01-.8.69-1.13,1.02-1.64.32-.49.67-.99,1.03-1.45.66-.86.66-2.11,1.72-2.74.25-.15.19-.78.34-1.16.28-.69.75-1.34.89-2.05.17-.85.76-1.46,1.04-2.23.09-.26.42-.54.69-.59.46-.09.94,0,1.42,0-.02.08-.06.15-.07.23-.09.81-.78,1.29-1.13,1.96-.55,1.07-1.02,2.15-1.41,3.29-.3.9-.86,1.71-1.3,2.55-.37.7-.73,1.39-1.1,2.09-.05.09-.08.2-.15.27-1.09.94-1.74,2.2-2.52,3.38-.35.54-.88.97-1.38,1.4-.5.43-1.09.77-1.6,1.19-.42.35-.95.7-1.13,1.17-.36.92-1.24,1.14-1.91,1.58-.86.56-1.69,1.13-2.45,1.82-.31.28-.82.33-1.19.57-1.36.88-2.87,1.46-4.25,2.32-1.23.77-2.67,1.18-3.99,1.82-1.13.54-2.39.87-3.12,2.08-.26.43-.77.74-1.22,1.02-1.61,1.02-2.52,2.67-3.6,4.14-1,1.36-1.91,2.81-2.78,4.27-.63,1.05-1.2,2.16-1.64,3.3-.6,1.52-1.05,3.1-1.57,4.66-.12.36-.13.78-.34,1.07-.9,1.25-1.01,2.77-1.39,4.18-.17.63-.08,1.4.09,2.13.19.8.31,1.64.47,2.46.11.56.3,1.07.5,1.57.74,1.85-.02,3.59-.33,5.37-.12.68-.23,1.37-.48,2.01-.47,1.21-1.01,2.38-1.55,3.56-.43.92-.4,1.72.26,2.39.19.19.59.15.88.26.31.11.74.45.89.35.28-.19.4-.62.57-.95.77-1.42,1.19-2.97,1.79-4.46.39-.97.41-2.1,1.16-2.96.26-.3.32-.85.32-1.29.02-1.1.46-2.1.66-3.16.3-1.54.95-2.93,1.63-4.3.64-1.29,1.37-2.52,1.73-3.93.1-.37.48-.69.78-.98.07-.07.33.04.5.07-.04.13-.04.29-.12.37-.28.28-.28.51-.19.93.1.47-.19,1.03-.34,1.55-.08.29-.55.58-.26.84.39.35.53-.23.75-.41.62-.49,1.16-1.05,1.79-1.53.63-.48,1.29-.95,1.99-1.32.72-.38,1.5-.63,2.25-.96,1.34-.58,2.67-1.2,4.02-1.76,1.24-.51,2.49-.98,3.85-1.13.75-.08,1.46-.44,2.2-.52,1.15-.13,2.24-.6,3.42-.58.96.01,1.93-.12,2.89-.21.5-.04.62-.44.87-.82.54-.81.93-1.69,1.36-2.54.24-.48.26-1.05.62-1.52.68-.88,1.27-1.82,1.89-2.75.21-.31.37-.66.55-.99.16-.29.3-.13.49-.01.12.08.41-.04.15.27-.15.18-.3.43-.29.64.06,1.33-.53,2.41-1.2,3.49-.21.34-.29.77-.48,1.12-.39.72-.84,1.42-1.24,2.14-.11.19-.1.45-.15.67.21.02.43.09.64.05,1.53-.29,4-.09,5.46-.05,1.72.05,3.31.68,5.03.77,1.54.08,3.11.27,4.63.77,1.67.54,3.43.83,5.16,1.15,1.6.3,3.09.88,4.55,1.56,2.28,1.06,4.46,2.31,6.51,3.76.74.53,1.46,1.09,2.21,1.61,1.57,1.09,3.14,2.19,4.74,3.24.92.6,1.89,1.13,2.84,1.68.12.07.26.09.37.16.58.38,1.55-.1,1.86,1.02.19.7.88,1.24,1.27,1.9,1.2,2.03,3.02,3.2,5.22,3.86.13.04.3-.02.44.02.52.15.54.29.17.7-1.2,1.36-2.7,1.98-4.51,1.95-.37,0-.77.09-1.12.22-1.02.37-2.04.39-3-.08-.89-.44-1.79-.67-2.75-.86-.91-.18-1.84-.17-2.75-.54-.56-.23-1.38-.19-2.11-.12-.83.08-1.69.05-2.57-.11-.95-.18-1.99-.21-3.02.09-.81.23-1.69.25-2.54.27-.86.02-1.65.23-2.44.53-.64.24-1.32.57-1.97.55-.96-.03-1.67.5-2.44.83-1.26.55-2.57.93-3.83,1.43-1.52.6-3.03,1.23-4.44,2.1-.65.4-1.47.53-2.22.77-1.28.41-2.6.54-3.92.68-.79.08-1.57.3-2.35.46-1.41.28-2.82.71-4.27.2-.2-.07-.45-.05-.66,0-.98.25-1.93.11-2.92.02-1.79-.15-3.53-.47-5.24-.99-1.8-.55-3.49-1.35-5.12-2.33-.93-.56-1.98-.91-2.98-1.33-.94-.39-1.93-.68-2.85-1.11-1.05-.5-2.04-.18-2.9.26-.87.44-1.66,1.13-2.31,1.86-.51.57-.77,1.36-1.12,2.06-.5.97-.97,1.96-1.49,2.92-.25.46-.58.87-.85,1.31-.73,1.18-1.31,2.47-2.57,3.23-.15.09-.34.24-.38.39-.17.65-.71.8-1.22.76-1.04-.08-1.53.77-2.28,1.19-.05.03-.03.19-.04.29.13,0,.27.06.37.02.69-.3,1.34-.8,2.05-.89,1.12-.13,2.01-1.01,3.22-.84.29.04.7-.29.97-.54.68-.63,1.43-.89,2.36-1.01,1.56-.21,3.12-.5,4.69-.38,1.49.12,2.71.88,3.68,2.01.14.16.13.6,0,.78-.11.17-.51.28-.72.21-.48-.16-.94-.41-1.37-.69-1.07-.68-2.11-1.33-3.48-.81-.42.16-.95,0-1.43.03-1.15.1-2.31.19-3.19,1.1-.08.09-.27.1-.32.19-.26.56-.72.69-1.29.71-.59.03-1.26-.24-1.71.42-.04.05-.21.03-.32.01-.98-.21-1.76.35-2.59.7-.31.13-.62.27-.94.41-.06.03-.17.02-.19.06-.46.8-1.05,1.55-1.15,2.5-.04.38,1.02.94,1.42.73.31-.16.56-.47.77-.75,1-1.36,2.28-2.23,4-2.31.99-.05,1.98-.04,2.92.42,1.36.67,2.15,1.68,2.66,3.15.34,1.01-.43,1.64-.33,2.51.06.51-.35,1.05-.38,1.59-.1,1.79-.89,3.45-1.07,5.18-.21,2.03-.19,4.11.81,6.05.77,1.48,1.32,3.06,2.03,4.57.22.47.6.88.97,1.25.53.53,1.17.96,1.69,1.5,1.24,1.29,2.85,1.96,4.41,2.71.8.39,1.62.72,2.45,1.02.65.23,1.37.27,1.98.56,1.23.59,2.43,1.27,3.61,1.97.45.26.84.64,1.23.99,1.13,1.01,2.45,1.85,3.32,3.12.55.81.89,1.77,1.35,2.64.42.8,1.01,1.53.87,2.52.68,1.28.65,2.74,1.04,4.1.41,1.46.7,2.99.52,4.55-.02.14.11.29.17.44.09-.12.2-.22.28-.35.62-1.01,1.24-1.96,2.22-2.73,1.53-1.2,2.98-2.62,3.89-4.34.99-1.86,1.99-3.72,2.75-5.71.44-1.14,1.01-2.23,1.36-3.42.27-.92.5-1.85.79-2.77.45-1.43.98-2.84,1.39-4.29.55-1.95,1.02-3.93,1.51-5.9.17-.71.32-1.42.43-2.14.04-.27-.04-.56-.08-.84-.01-.1-.14-.22-.12-.27.52-1.1-.29-2.23.15-3.4.26-.71-.13-1.66-.24-2.5-.02-.17-.15-.34-.13-.49.14-.9-.22-1.63-.65-2.39-.6-1.06-.87-2.3-1.57-3.33-.43-.63-.8-1.33-1.33-1.87-1.17-1.19-2.41-2.32-3.65-3.45-.44-.39-.94-.74-1.46-1.02-2.08-1.1-4-2.55-6.36-3.05-1.06-.22-2.12-.45-3.19-.56-.91-.09-1.84,0-2.76-.03-.86-.03-1.71-.05-2.57-.16-1.03-.14-2.12.14-3.19.25-.13.01-.25.12-.38.13-.71.08-1.41.15-2.12.22-.15.01-.29,0-.44,0-.45,0-.96.04-1.06-.57-.05-.32.63-.9,1-.99,3.34-.73,6.73-.82,10.12-.62,2.1.12,4.25.14,6.26.86,1.57.57,3.13,1.19,4.53,2.13,1.57,1.05,3.21,2.01,4.61,3.29.86.79,1.81,1.55,2.46,2.51.79,1.18,1.82,2.29,1.97,3.82,0,.09.12.17.17.26.94,1.45,1,3.19,1.57,4.77.13.36.05.81.01,1.21-.11,1.37.23,2.75-.19,4.12-.09.29.21.68.18,1.01-.1,1.09-.3,2.16-.42,3.25-.29,2.52-1.14,4.9-1.78,7.33-.16.59-.48,1.13-.65,1.72-.47,1.62-.83,3.26-1.36,4.86-.37,1.13-.9,2.21-1.42,3.28-.51,1.05-1.19,2.01-1.63,3.08-.42,1.03-1,1.95-1.55,2.9-.73,1.26-1.82,2.15-2.85,3.08-.96.86-2.01,1.61-2.54,2.84-.05.13-.07.29-.16.37-.9.77-.97,1.78-.89,2.85.02.2-.03.44-.13.6-.2.32-.42.53-.78.08-.34-.43-.66-.82-.63-1.41.03-.47-.08-.67-.53-.27-.06.06-.21.03-.31.04-.48.03-.57-.1-.48-.57.16-.78.34-1.57.42-2.37.14-1.39-.35-2.71-.68-4.03-.24-.97-.54-1.92-.67-2.93-.1-.79-.51-1.55-.79-2.32-.54-1.51-1.42-2.84-2.37-4.09-.58-.76-1.42-1.33-2.15-1.97-.35-.3-.7-.6-1.08-.86-.25-.17-.56-.25-.83-.4-.72-.41-1.43-.82-2.14-1.25-.78-.47-1.64-.68-2.51-.89-.4-.1-.8-.2-1.17-.37-1.3-.6-2.61-1.19-3.87-1.85-.67-.35-1.3-.81-1.9-1.27-.62-.48-1.19-1.04-1.79-1.55-.74-.64-.97-1.6-1.5-2.36-1.14-1.67-1.58-3.63-2.31-5.46-.5-1.25-.74-4.85-.53-6.08.12-.68.27-1.36.5-2,.41-1.14.58-2.31.6-3.51.02-.89.14-1.78.21-2.67.08-1.14-.48-1.86-1.49-2.34-1.52-.73-2.92-.39-4.27.41-.18.11-.38.3-.42.48-.27,1.21-1.37,1.37-2.24,1.82-.21.11-.45.17-.68.22-.56.12-.65.49-.65,1,0,.59-.02,1.24-.25,1.77-.29.67-.26,1.29.11,1.79.35.47.21.88.14,1.31-.22,1.26-1.19,2.15-1.72,3.26-.56,1.19-1.61,1.99-2.45,2.96-.47.54-1.06.85-1.55,1.31-.53.5-.91,1.16-1.35,1.75-.14.18-.27.52-.42.53-.98.04-1.37.84-1.95,1.4-.38.36-.51.63.11.94.31.15.57.47-.07.84-1.09.62-1.39,1.82-1.63,2.94-.24,1.1-.25,2.25-.49,3.35-.14.65-.45,1.3-.8,1.87-1.04,1.69-2.33,3.19-3.83,4.48-.84.72-1.79,1.34-2.75,1.88-1.71.96-3.25,2.15-4.81,3.31-.5.38-.8,1.01-1.27,1.44-.82.74-1.67,1.45-2.55,2.1-.93.69-1.98.99-3.17.91-1.19-.08-2.06-.69-2.22-1.81-.13-.88-.32-1.8-.19-2.67.18-1.2.09-2.46.6-3.61.12-.28-.02-.67.11-.95.33-.72.73-1.39,1.61-1.6,1.31-.32,2.6-.68,3.94-.91,1.3-.22,2.46-.91,3.43-1.84.05-.05.14-.1.15-.16.22-1.11,1.21-1.7,1.72-2.61.38-.68.69-1.41,1-2.13.08-.18.05-.45-.01-.65-.47-1.43-.25-2.85.11-4.26.22-.86.51-1.7.82-2.54.08-.23.29-.55.47-.57.6-.07.94-.46,1.32-.84.7-.7,1.4-1.4,2.1-2.1.1-.1.29-.22.29-.32-.13-1.48,1.08-1.96,2.01-2.5,2.29-1.31,4.04-3.18,5.67-5.18.63-.77.84-1.97.74-3.05-.03-.28.01-.57.09-.84.19-.68.28-1.36.38-2.06.11-.8.36-1.62.73-2.34.64-1.22,1.14-2.48,1.45-3.82.42-1.8,1.21-3.49,1.59-5.32.11-.55.32-1.12.49-1.67.08-.25-.06-.27-.09-.41-.22-1.1-.21-1.1.18-2.61.21-.81-.26-1.5-.58-2.16-.69-1.41-1.6-2.71-2.05-4.24-.12-.42-.47-.76-.64-1.17-.46-1.09-.49-2.17-.3-3.38.17-1.07-.21-2.23-.4-3.34-.03-.17-.32-.32-.51-.44-.35-.22-.71-.42-1.07-.61-1.38-.71-1.47-2.07-1.72-3.36-.21-1.05-.5-2.08-.77-3.11-.05-.19-.16-.4-.31-.53-.32-.27-.51-.53-.22-.94.26-.36,1.07-.84,1.35-.75.1.03.24.11.25.18.1.71.98.87,1.08,1.65.06.46.65.78,1.15.8.74.03,1.33.34,1.94.67.39.21.84.29,1.25.46.62.26,1.12.57,1.41,1.29.33.8.23,1.62.4,2.42.12.59.16,1.19.23,1.79.06.53-.2,1.06,0,1.58.35.91.11,1.95.64,2.84.16.27,0,.72.03,1.09.04.54.2.97.8,1.22.41.17.76.52,1.08.84.4.41.52.14.62-.21.14-.5.26-1,.37-1.5.3-1.31.6-2.63.88-3.95.05-.23.04-.54-.08-.73-.25-.41-.34-.82-.38-1.29-.03-.31-.25-.66-.48-.9-1.17-1.21-1.13-2.7-1-4.2.05-.61.37-1.22.37-1.82,0-1.2.61-2.19.98-3.26.56-1.65,1.35-3.21,1.7-4.93.81-.66.39-1.95,1.32-2.55.6-1.8,1.73-3.3,2.84-4.79.95-1.27,1.84-2.58,2.83-3.83,1.23-1.55,2.8-2.67,4.26-3.91.81-.69,1.88-1.14,2.9-1.5,1.56-.55,2.95-1.42,4.42-2.14.74-.36,1.4-.9,2.16-1.19,1.79-.66,3.1-2.05,4.76-2.92.62-.32,1.04-1,1.58-1.49.53-.49,1.07-.96,1.63-1.41.6-.49,1.23-.94,1.84-1.41.14-.11.38-.26.37-.39-.02-.63.5-.86.87-1.3M172.93,160.93c.85.07,1.71.22,2.56.21,2.05-.02,4.09.13,6.13-.39,1.79-.46,3.67-.55,5.48-.95,1.16-.25,2.28-.71,3.38-1.17,1.19-.5,2.32-1.16,3.51-1.67,1.13-.48,2.27-.93,3.45-1.27,1.22-.35,2.26-1.07,3.59-1.25,1.67-.22,3.22-.98,4.97-1.08,1.33-.07,2.66-.44,4.02-.39,1.55.05,3.11.11,4.66.23.61.05,1.2.29,1.81.41.89.17,1.78.39,2.69.44,1.19.06,2.24.46,3.2,1.08.32.21.49.18.68.03.59-.43,1.24-.47,1.92-.44.51.02,1.03.02,1.55,0,.09,0,.17-.16.26-.24-.07-.06-.13-.16-.21-.19-2.17-.61-3.37-2.34-4.59-4.04-.47-.66-.72-1.5-1.48-1.9-1.33-.7-2.73-1.28-4.01-2.06-1.84-1.12-3.6-2.36-5.37-3.58-.67-.46-1.28-.99-1.93-1.48-2.11-1.56-4.39-2.81-6.84-3.76-1.51-.58-3-1.2-4.64-1.35-.86-.08-1.73-.25-2.54-.54-2.67-.94-5.47-1.09-8.24-1.44-.76-.1-1.5-.29-2.26-.41-.7-.11-1.45-.35-2.1-.2-.65.15-1.27.15-1.91.16-.92.03-1.86-.11-2.76.04-1.26.21-2.52.42-3.8.41-.22,0-.47-.06-.66,0-1.31.49-2.73.39-4.07.84-1.82.61-3.75.71-5.56,1.52-1.89.85-3.83,1.59-5.72,2.45-1.43.65-2.61,1.6-3.8,2.56-1.84,1.5-3.03,3.53-4.22,5.54-.22.38-.44.82-.45,1.24-.03,1.36-.84,2.47-1.09,3.77-.26,1.36-.87,2.65-1.28,3.99-.49,1.61-1.45,2.95-2.35,4.33-.49.76-1.1,1.46-1.47,2.26-.5,1.07-1.6,1.63-2.13,2.65-.06.12-.22.19-.33.29.19.05.37.12.56.15.04,0,.1-.14.15-.14.57,0,1.14.02,1.7.03.05.64.54.5.96.58.6.11.87.71.71,1.32-.05.19-.04.4-.05.6.2-.09.44-.15.61-.29.31-.26.64-.53.85-.86.56-.87,1-1.81,1.6-2.65.58-.82,1.19-1.62,1.53-2.57.35-.96.97-1.81,1.18-2.83.03-.16.12-.33.23-.45,1.41-1.67,2.68-3.5,4.53-4.72.88-.58,1.75-1.5,3-.83.13.07.29.16.33.28.07.24-.03.34-.32.4-.91.19-1.75.58-2.53,1.09-.24.16-.44.36-.66.54.31.04.62.08.92.12.03,0,.07-.02.1-.03.74-.39,1.4-.18,2.1.16.95.46,1.94.82,2.93,1.2,1.17.46,2.44.75,3.52,1.36,1.59.9,3.13,1.84,4.94,2.22.95.2,1.84.66,3.06.63M139.76,182.82c-.38.27-.41.64-.28,1.04.04.11.2.18.3.27.18-.36.38-.71.52-1.09.06-.16.11-.47-.26-.44-.06,0-.11.07-.28.22M138.11,186.47c-.01.4.18.47.44.21.26-.27.47-.6.69-.9.06-.08.11-.15.16-.23-.1-.03-.19-.06-.29-.08-.73-.15-.6.58-1,.99M134.13,141.58c-.2-.15-.41-.23-.43.12,0,.18.1.4.23.55.13.15.34.22.51.33.01-.22.04-.44.02-.65,0-.08-.14-.16-.33-.34M111.9,210.02c.39-.03.57-.23.55-.62,0-.07-.03-.13-.05-.2-.21.16-.42.32-.61.5-.04.03,0,.14.11.32M136.34,142.46c.13.11.25.24.4.32.05.03.17-.06.26-.1-.2-.24-.4-.49-.59-.73-.02.1-.05.19-.07.51M194.27,134.28c-.24-.04-.48-.08-.73-.1-.05,0-.1.07-.15.11.1.03.2.06.29.1.43.21.43.21.59-.11M203.34,136.93c-.09-.04-.19-.07-.28-.11-.16-.06-.31-.16-.47-.19-.1-.02-.22.06-.33.1.2.35.54.32.86.31.04,0,.07,0,.22-.11M140.43,168.45c-.1.13-.19.25-.29.38.17.02.34.04.51.06,0-.15,0-.29-.22-.44M165.53,159.49c-.15-.08-.3-.17-.46-.23-.12-.04-.25-.03-.37-.05.09.13.16.3.29.37.11.06.29.01.54-.1M188.41,133.51c-.11,0-.22-.02-.32,0-.07.02-.13.09-.19.14.14.16.52.08.52-.15M185.43,133.17c-.16-.04-.32-.08-.48-.1-.05,0-.11.06-.17.09.07.04.14.11.22.12.1.02.21,0,.42-.11M133.79,185.92c.04.07.07.15.11.22.04-.07.07-.15-.11-.22M181.67,132.95c-.02-.09-.04-.19-.06-.28-.05.01-.14.03-.14.04.02.12.05.24.2.24M178.79,132.95c-.12-.03-.23-.06-.35-.08,0,0-.02.09-.04.14.09.02.19.04.39-.05M213.73,143.57s.09.06.13.09c0-.07-.01-.13-.13-.09M198.37,135.28s-.06.09-.09.13c.07,0,.13-.01.09-.13M195.05,134.83s.06-.09.09-.13c-.07,0-.13.01-.09.13M153.14,118.58s-.09-.06-.13-.09c0,.07.01.13.13.09M175.04,103.76s-.09-.06-.13-.09c0,.07.01.13.13.09M127.93,203.72s-.09-.06-.13-.09c0,.07.01.13.13.09M128.6,203.94s-.09-.06-.13-.09c0,.07.01.13.13.09Z"/>
    <path class="st0" d="M182.11,100.11c.23-1.89.36-3.68.87-5.42.43-1.46.98-2.85,1.8-4.11.24-.36.61-.14,1-.01.47.16.34.41.25.64-.33.79-.73,1.54-1.03,2.33-.22.58-.39,1.19-.44,1.8-.17,1.98-.67,3.91-.73,5.91-.03.95-.11,1.93-.17,2.89-.03.45-.13.9-.22,1.34-.24,1.32.12,2.58.44,3.83.03.1.02.22,0,.33-.24,1.06.54,2.11.01,3.17-.03.06-.04.17,0,.21.68.73.47,1.64.41,2.47-.06.89.07,1.86-.62,2.61.02,1.3-.83,2.32-1.12,3.51-.03.1,0,.24-.05.3-.12.12-.28.2-.43.29-.06-.14-.15-.28-.18-.43-.16-.95.38-1.76.55-2.65.16-.85.06-1.76.53-2.54-.57-.75.18-1.72-.42-2.46.18-1.2-.3-2.31-.44-3.46-.07-.6-.08-1.21-.23-1.78-.46-1.73-.17-3.48-.18-5.22,0-1.15.27-2.31.41-3.57Z"/>
    <path class="st0" d="M160.61,126.82c.5-.68.95-1.3,1.38-1.94.17-.25.28-.56.48-.79,1.45-1.76,2.76-3.67,4.41-5.21,1.57-1.47,3.16-2.96,4.96-4.21.86-.6,1.62-1.42,2.1-2.42.09-.18.16-.38.22-.57.05-.16.06-.46.12-.48.28-.05.58-.02.88-.01.02,0,.07.12.05.15-.43.74-.05,1.61-.56,2.43-.7,1.13-1.67,1.9-2.64,2.72-.13.11-.32.15-.44.27-1.56,1.48-3.21,2.88-4.65,4.47-1.37,1.51-2.75,3.04-3.83,4.8-.13.21-.33.37-.48.57-.87,1.18-1.74,2.37-2.61,3.55-.21.29-.44.55-.67.83-.32.39-.71.51-1.13.17-.49-.4.03-.72.19-.97.57-.88,1.22-1.7,1.83-2.56.15-.22.23-.49.39-.8Z"/>
    <path class="st0" d="M180.4,192.49c.24.64.51,1.22.58,1.82.06.48.26.85.46,1.25.47.95.6,2,.65,3.03.08,1.58.12,3.17-.01,4.75-.1,1.27-.45,2.52-.73,3.77-.11.49-.32.98-.55,1.43-.15.29-.46.52-.81.33-.32-.18-.28-.39-.13-.78.24-.6.2-1.32.26-1.99.15-1.63.25-3.27.46-4.9.3-2.3-.1-4.47-.93-6.61-.38-.99-.52-2.06-.86-3.07-.26-.74-.64-1.43-1.16-2.07-.65-.8-1.14-1.73-1.7-2.6-.09-.14-.24-.33-.21-.45.1-.34-.82-.44-.21-.81.28-.16.7-.13,1.05-.1.13.01.25.26.35.42.63.92,1.29,1.81,1.86,2.76.49.82,1.19,1.54,1.41,2.5.1.41.11.84.22,1.31Z"/>
    <path class="st0" d="M168.68,178.56c.23.16.43.24.58.37.35.32.68.65,1,1,.08.08.09.25.09.37,0,.03-.19.09-.28.07-.33-.08-.68-.15-.97-.31-.72-.4-1.43-.8-2.23-1.01-.03,0-.1.01-.11,0-.46-.75-1.4-.8-1.98-1.33-.61-.55-1.38-.65-2.08-.84-1.01-.28-2.08-.32-3.12-.48-.23-.04-.45-.17-.65-.3-.3-.19-.31-.38-.06-.7.43-.53.96-.66,1.55-.53.97.21,1.92.52,2.89.75,1.5.36,2.77,1.16,4.02,2.03.43.3.87.57,1.35.91Z"/>
    <path class="st0" d="M166.41,195.87c.29,1.13.56,2.16.9,3.16.15.45.44.84.64,1.28.05.1-.05.26-.08.4-.13-.04-.27-.04-.37-.12-.57-.43-.68-1.12-.85-1.74-.23-.86-.34-1.75-.79-2.55-.03-.06-.09-.11-.1-.18-.17-.97.22-1.93.01-2.91-.21-.99.2-1.95.44-2.9.05-.19.25-.34.4-.49.05-.05.15-.04.23-.06,0,.07.04.15.02.21-.58,1.89-.42,3.84-.44,5.89Z"/>
    <path class="st0" d="M186.81,182.76c1.1.56,1.82,1.35,2.21,2.44.03.09.05.24,0,.3-.05.06-.2.06-.3.05-.43-.03-.52-.43-.63-.71-.18-.48-.45-.78-.9-1.06-1.51-.96-3.04-1.87-4.79-2.31-.93-.23-1.91-.8-2.79.17-.07.08-.28.08-.41.06-.15-.03-.28-.12-.42-.19.09-.08.17-.18.27-.24.78-.46,1.5-.73,2.52-.51,1,.21,1.94.43,2.84.92.74.41,1.55.69,2.39,1.08Z"/>
    <path class="st0" d="M164.48,130.36c-.01-.51.41-.58.69-.58.52,0,1.03-.04,1.58.14.99.31,2.06.38,3.1.49.6.07,1.17-.13,1.65-.53.16-.13.34-.26.53-.3.13-.03.32.07.44.16.04.04-.03.33-.12.36-.55.23-.7.89-1.43,1.04-.87.17-1.65-.08-2.44-.15-1.31-.12-2.58-.62-3.99-.63Z"/>
    <path class="st0" d="M173.49,173.53c-1.24-.6-2.07.16-2.96.64-.51.28-1,.59-1.52.84-.16.07-.39-.02-.59-.03.13-.19.22-.43.39-.55.45-.31.93-.57,1.41-.83.36-.19.75-.32,1.1-.52.55-.3,1.01-.59,1.73-.26.48.22,1.15.03,1.74.05.16,0,.31.09.47.14-.15.17-.28.46-.45.49-.39.08-.8.02-1.32.02Z"/>
    <path class="st0" d="M175.04,205.15c-.05-.49.01-.85-.17-1.26-.15-.34.05-.9.21-1.31.36-.88.94-1.67,1.09-2.64.02-.15.23-.28.38-.39.05-.04.24.02.24.03,0,.56.03,1.1-.34,1.63-.73,1.07-1.19,2.22-.8,3.6.12.42.31.69.56.99.08.09.08.25.11.37-.17.03-.43.14-.5.07-.3-.3-.54-.65-.8-1.09Z"/>
    <path class="st0" d="M173.65,120.63c1.1-.63,2.13-.14,3.17-.03.32.03.65.01.94.11.16.05.24.31.36.48-.15.06-.3.16-.45.16-1.35.01-2.71.01-4.06,0-.19,0-.39-.09-.58-.14.18-.17.37-.35.61-.57Z"/>
    <path class="st0" d="M153.36,129.97c-1.5-.28-1.87-.78-1.32-2.11.06-.16.2-.31.2-.46,0-.47.36-.32.54-.28.12.03.55.19.16.51-.06.05,0,.21-.03.31-.07.34-.29.74-.18.99.11.22.59.24.9.38.14.07.24.23.37.34-.18.1-.35.21-.64.31Z"/>
    <path class="st0" d="M185.21,199.41c-.22-.14-.39-.26-.43-.42-.05-.24-.07-.58.35-.46.46.13.92.28,1.34.49.34.17.63.44.92.7.12.11.17.29.25.44-.16.04-.33.14-.48.12-.26-.04-.53-.14-.77-.26-.37-.18-.71-.41-1.18-.62Z"/>
    <path class="st0" d="M161.99,115.82c.33-.51,1.01-.59,1.41-.24.28.24.53.51.78.78.08.08.18.24.15.3-.06.11-.2.2-.33.25-.09.04-.24.05-.32,0-.57-.32-1.13-.66-1.69-1.1Z"/>
    <path class="st0" d="M158.51,189.18c-.34-.97-.77-1.87-.27-2.84.04-.08.13-.18.2-.18.08,0,.23.08.23.14.09.81.18,1.62.21,2.43,0,.17-.2.35-.37.46Z"/>
    <path class="st0" d="M147.45,140.86c-.21.79-.77.24-1.12.36-.1.03-.38-.25-.47-.45-.08-.17-.07-.44.29-.42.49.03,1-.06,1.42.29.02.01.02.06.01.07-.02.03-.05.05-.13.13Z"/>
    <path class="st0" d="M159.17,179.34c.09-.33.1-.62.18-.88.03-.11.21-.26.32-.26.11,0,.3.16.31.27.04.6-.07,1.18-.49,1.65-.08.09-.2.16-.31.23-.02-.14-.06-.27-.07-.41-.01-.18,0-.36.05-.6Z"/>
    <path class="st0" d="M167.13,188.51c.09-.57.21-1.1.41-1.6.06-.15.33-.22.5-.33-.01.17,0,.34-.04.5-.08.36-.13.74-.28,1.08-.08.18-.35.28-.59.36Z"/>
    <path class="st0" d="M143.86,156.73c.22.09.33.18.44.28-.11.06-.23.17-.33.15-.12-.01-.22-.16-.35-.2-.2-.07-.4-.11-.61-.16.24-.02.49-.05.84-.07Z"/>
    <path class="st0" d="M146.07,137.27c-.33-.29-.29-.47.11-.44.18.01.35.09.52.14-.17.1-.35.2-.63.3Z"/>
    <path class="st0" d="M149.11,101.83c-.16.06-.27.07-.37.05-.08-.02-.15-.08-.22-.12.06-.03.12-.09.17-.09.16.02.32.07.42.16Z"/>
    <path class="st0" d="M220.81,122.01c-.07-.07-.04-.15,0-.22.04.07.07.15,0,.22Z"/>
    <path class="st0" d="M139.49,107.03c.06.01.07.08.08.14-.04-.03-.09-.06-.08-.14Z"/>
    <path class="st0" d="M185.93,101.16c.01-.06.08-.07.14-.08-.03.04-.06.09-.14.08Z"/>
    <path class="st0" d="M205.33,146.11c.76.45,1.47.66,2.27.68.55.01,1.11.15,1.65.27.1.02.2.19.24.31.01.05-.13.18-.22.23-1.29.6-2.6.7-3.95.17-.51-.2-1.04-.33-1.57-.47-1.18-.32-2.16-1.01-3.19-1.62-.96-.57-2.04-.8-3.09-1.07-1.42-.37-2.91-.48-4.35-.74-3.77-.67-7.54-.38-11.31-.35-2.1.01-4.22.32-6.33.43-1.26.07-2.51.49-3.76.75-.1.02-.2.1-.29.09-.44-.04-1.13.23-1.19-.38-.04-.39.66-.39,1.07-.51,1.12-.33,2.33-.26,3.41-.84.44-.23,1.03-.19,1.55-.25.7-.09,1.41-.17,2.12-.22,1.33-.09,2.68-.04,3.99-.25,1.67-.27,3.37-.31,5.04-.59.81-.14,1.73-.3,2.56.16.11.06.29,0,.43.02,1.07.07,2.15.1,3.22.23.89.11,1.77.35,2.65.54.1.02.2.12.28.11,1.12-.2,2.05.42,2.99.79,1.39.53,2.73,1.26,4.02,2.02.55.32,1.12.33,1.78.52Z"/>
    <path class="st0" d="M153.86,149.04c-.35.05-.66.07-.95.03-.09-.01-.18-.21-.2-.34,0-.05.18-.16.3-.18.88-.2,1.51-.83,2.2-1.32,1.46-1.04,3.05-1.82,4.71-2.44.16-.06.37-.03.55,0,.21.04.42.13.63.2-.15.12-.28.26-.45.34-1.48.76-2.98,1.49-4.45,2.26-.46.24-.86.57-1.3.84-.32.2-.65.37-1.04.6Z"/>
    <path class="st0" d="M191.79,152.58c-.09-.15-.1-.28-.17-.34-1.07-.9-1.95-2.05-3.31-2.61-.63-.26-1.2-.66-1.79-1.01-.1-.06-.14-.23-.2-.35.11-.06.22-.15.34-.17.91-.15,1.61.39,2.32.79,1.66.94,2.85,2.43,4.2,3.74.34.32.33.64-.03.91-.34.25-.61.06-.83-.22-.17-.22-.32-.46-.53-.74Z"/>
    <path class="st0" d="M168.35,140.31c-.66.2-1.26.36-1.86.5-.91.21-1.76.46-1.85,1.62,0,.09-.13.16-.2.25-.09.12-.19.23-.28.35-.13-.15-.35-.29-.39-.46-.13-.62.5-1.73,1.07-2.08.68-.42,1.39-.59,2.2-.58.82.01,1.63-.14,2.45-.2.19-.01.53-.09.43.26-.05.16-.48.4-.53.35-.33-.29-.65-.23-1.05-.01Z"/>
    <path class="st0" d="M170.61,154.51c-.5.44-.6-.11-.83-.3-.42-.34-.78-.76-1.16-1.14-.54-.54-1.1-1.06-1.61-1.63-.53-.59-1.14-.93-1.94-.92-.14,0-.35-.09-.4-.19-.1-.19-.18-.44-.14-.64.02-.11.36-.25.5-.2.35.12.65.43,1,.51.76.17,1.19.73,1.67,1.24.39.43.78.88,1.24,1.22.71.53,1.33,1.11,1.69,2.04Z"/>
    <path class="st0" d="M189.19,138.37c.5-.52.87-.04,1.24.03.04,0,.09.13.08.18-.03.09-.1.22-.16.22-1.25.15-2.29.74-3.24,1.53-.13.11-.3.21-.45.22-.11,0-.32-.14-.33-.24-.09-.7.39-1.03.93-1.27.44-.19.91-.3,1.36-.45.16-.06.31-.14.57-.22Z"/>
    <path class="st0" d="M171.72,157.39c.21.39.43.66.61.95.1.16.15.35.23.53-.27,0-.59.07-.8-.04-.22-.12-.36-.42-.47-.66-.3-.69-.2-1.5-.66-2.14-.05-.07,0-.21.02-.31.1.04.26.06.3.14.27.47.52.95.78,1.54Z"/>
    <path class="st0" d="M203.12,140.58c.29.14.48.27.66.41-.16.16-.29.38-.48.47-.43.19-.88.36-1.34.43-.18.03-.4-.21-.6-.33.11-.17.17-.43.33-.51.42-.2.89-.32,1.44-.47Z"/>
    <path class="st0" d="M203.73,150.26c-.54.27-1.03.44-1.51.05-.11-.09-.21-.28-.19-.4.02-.1.23-.26.34-.24.51.06,1.03.13,1.36.59Z"/>
  </g>
  <g>
    <path class="st0" d="M426.2,100.5c.37.44.9.67.87,1.3,0,.13.23.28.37.39.61.48,1.24.93,1.84,1.41.56.45,1.1.92,1.63,1.41.54.49.96,1.17,1.58,1.49,1.65.87,2.97,2.26,4.76,2.92.76.28,1.42.83,2.16,1.19,1.47.72,2.86,1.59,4.42,2.14,1.02.36,2.09.81,2.9,1.5,1.47,1.24,3.04,2.36,4.26,3.91.99,1.25,1.88,2.55,2.83,3.83,1.11,1.49,2.24,2.98,2.84,4.79.93.6.51,1.89,1.32,2.55.35,1.72,1.14,3.29,1.7,4.93.36,1.06.97,2.06.98,3.26,0,.61.31,1.21.37,1.82.13,1.5.17,2.99-1,4.2-.23.24-.45.58-.48.9-.04.47-.13.88-.38,1.29-.12.19-.13.5-.08.73.27,1.32.58,2.63.88,3.95.11.5.23,1.01.37,1.5.1.34.22.61.62.21.32-.33.67-.68,1.08-.84.59-.24.76-.67.8-1.22.03-.37-.13-.82.03-1.09.53-.89.29-1.92.64-2.84.2-.52-.06-1.06,0-1.58.07-.6.11-1.2.23-1.79.17-.8.06-1.61.4-2.42.3-.72.79-1.03,1.41-1.29.41-.17.86-.25,1.25-.46.62-.33,1.2-.65,1.94-.67.49-.02,1.08-.34,1.15-.8.11-.77.98-.94,1.08-1.65.01-.07.15-.15.25-.18.27-.09,1.08.39,1.35.75.3.41.1.66-.22.94-.15.13-.26.34-.31.53-.27,1.03-.56,2.06-.77,3.11-.26,1.29-.35,2.65-1.72,3.36-.37.19-.73.39-1.07.61-.19.12-.48.27-.51.44-.19,1.11-.57,2.27-.4,3.34.19,1.21.16,2.29-.3,3.38-.17.41-.52.75-.64,1.17-.45,1.53-1.36,2.83-2.05,4.24-.32.66-.79,1.35-.58,2.16.38,1.51.4,1.51.18,2.61-.03.13-.16.16-.09.41.17.55.38,1.12.49,1.67.37,1.83,1.16,3.52,1.59,5.32.32,1.34.81,2.6,1.45,3.82.37.72.63,1.54.73,2.34.09.7.19,1.38.38,2.06.08.27.11.57.09.84-.1,1.08.1,2.28.74,3.05,1.64,1.99,3.38,3.87,5.67,5.18.94.54,2.14,1.02,2.01,2.5,0,.1.18.21.29.32.7.7,1.4,1.4,2.1,2.1.38.37.72.76,1.32.84.18.02.39.35.47.57.3.84.6,1.68.82,2.54.36,1.4.58,2.82.11,4.26-.07.2-.09.46-.01.65.3.72.61,1.45,1,2.13.51.91,1.5,1.5,1.72,2.61.01.06.1.11.15.16.97.94,2.13,1.62,3.43,1.84,1.34.23,2.63.6,3.94.91.88.21,1.28.88,1.61,1.6.13.27-.01.67.11.95.52,1.15.43,2.41.6,3.61.13.86-.07,1.78-.19,2.67-.16,1.12-1.04,1.74-2.22,1.81-1.19.08-2.24-.22-3.17-.91-.89-.65-1.74-1.36-2.55-2.1-.47-.43-.77-1.07-1.27-1.44-1.56-1.17-3.1-2.35-4.81-3.31-.97-.54-1.92-1.16-2.75-1.88-1.5-1.29-2.79-2.8-3.83-4.48-.35-.57-.66-1.22-.8-1.87-.24-1.1-.25-2.25-.49-3.35-.25-1.12-.55-2.33-1.63-2.94-.64-.36-.38-.68-.07-.84.62-.31.49-.58.11-.94-.58-.56-.97-1.36-1.95-1.4-.15,0-.28-.34-.42-.53-.44-.59-.82-1.25-1.35-1.75-.49-.46-1.08-.77-1.55-1.31-.84-.97-1.89-1.77-2.45-2.96-.53-1.12-1.5-2-1.72-3.26-.07-.43-.22-.84.14-1.31.38-.5.4-1.12.11-1.79-.23-.53-.24-1.17-.25-1.77,0-.52-.09-.88-.65-1-.23-.05-.47-.11-.68-.22-.87-.45-1.97-.61-2.24-1.82-.04-.18-.24-.37-.42-.48-1.35-.8-2.75-1.14-4.27-.41-1.01.48-1.57,1.19-1.49,2.34.07.89.19,1.78.21,2.67.03,1.21.2,2.37.6,3.51.23.65.39,1.32.5,2,.22,1.23-.02,4.83-.53,6.08-.73,1.83-1.17,3.79-2.31,5.46-.53.77-.76,1.72-1.5,2.36-.6.52-1.17,1.07-1.79,1.55-.6.47-1.23.92-1.9,1.27-1.27.66-2.57,1.26-3.87,1.85-.37.17-.78.27-1.17.37-.87.21-1.73.42-2.51.89-.71.43-1.42.84-2.14,1.25-.27.15-.58.23-.83.4-.38.26-.74.55-1.08.86-.73.64-1.57,1.21-2.15,1.97-.96,1.25-1.83,2.59-2.37,4.09-.28.77-.69,1.52-.79,2.32-.13,1.01-.43,1.96-.67,2.93-.33,1.32-.82,2.63-.68,4.03.08.79.26,1.58.42,2.37.1.47,0,.6-.48.57-.11,0-.25.02-.31-.04-.44-.4-.56-.19-.53.27.04.58-.28.98-.63,1.41-.36.45-.58.24-.78-.08-.1-.17-.15-.4-.13-.6.08-1.07,0-2.08-.89-2.85-.09-.08-.11-.25-.16-.37-.53-1.24-1.58-1.98-2.54-2.84-1.04-.94-2.13-1.83-2.85-3.08-.55-.95-1.13-1.87-1.55-2.9-.44-1.07-1.12-2.04-1.63-3.08-.52-1.07-1.05-2.15-1.42-3.28-.52-1.6-.89-3.24-1.36-4.86-.17-.59-.49-1.13-.65-1.72-.65-2.43-1.49-4.82-1.78-7.33-.13-1.08-.32-2.16-.42-3.25-.03-.33.27-.72.18-1.01-.42-1.36-.09-2.75-.19-4.12-.03-.4-.12-.85.01-1.21.57-1.57.63-3.32,1.57-4.77.06-.09.17-.17.17-.26.15-1.53,1.18-2.64,1.97-3.82.64-.95,1.59-1.71,2.46-2.51,1.4-1.28,3.03-2.24,4.61-3.29,1.4-.94,2.96-1.56,4.53-2.13,2.02-.72,4.17-.74,6.26-.86,3.38-.19,6.78-.1,10.12.62.38.08,1.05.67,1,.99-.1.6-.6.56-1.06.57-.15,0-.3.01-.44,0-.71-.07-1.41-.14-2.12-.22-.13-.02-.25-.12-.38-.13-1.06-.11-2.15-.38-3.19-.25-.86.11-1.71.13-2.57.16-.92.03-1.85-.07-2.76.03-1.07.11-2.13.34-3.19.56-2.36.5-4.28,1.95-6.36,3.05-.52.27-1.02.62-1.46,1.02-1.24,1.12-2.48,2.25-3.65,3.45-.53.54-.9,1.24-1.33,1.87-.7,1.03-.96,2.26-1.57,3.33-.43.76-.8,1.49-.65,2.39.02.15-.11.32-.13.49-.11.84-.5,1.79-.24,2.5.43,1.17-.38,2.3.15,3.4.03.06-.1.18-.12.27-.04.28-.13.57-.08.84.11.72.26,1.43.43,2.14.49,1.97.96,3.95,1.51,5.9.41,1.44.94,2.85,1.39,4.29.29.92.52,1.85.79,2.77.34,1.18.92,2.28,1.36,3.42.76,1.99,1.77,3.85,2.75,5.71.91,1.72,2.36,3.14,3.89,4.34.99.77,1.61,1.72,2.22,2.73.08.13.18.23.28.35.06-.15.19-.3.17-.44-.18-1.56.11-3.09.52-4.55.38-1.36.35-2.82,1.04-4.1-.14-.99.45-1.72.87-2.52.46-.87.8-1.83,1.35-2.64.86-1.27,2.18-2.11,3.32-3.12.39-.35.78-.73,1.23-.99,1.18-.69,2.37-1.38,3.61-1.97.61-.29,1.33-.33,1.98-.56.83-.3,1.66-.63,2.45-1.02,1.56-.75,3.17-1.43,4.41-2.71.52-.54,1.16-.97,1.69-1.5.37-.37.75-.78.97-1.25.71-1.51,1.26-3.1,2.03-4.57,1.01-1.94,1.03-4.02.81-6.05-.18-1.74-.98-3.39-1.07-5.18-.03-.54-.44-1.08-.38-1.59.1-.87-.68-1.5-.33-2.51.5-1.47,1.3-2.48,2.66-3.15.94-.47,1.92-.47,2.92-.42,1.72.08,3,.95,4,2.31.21.29.47.59.77.75.4.21,1.46-.35,1.42-.73-.1-.95-.69-1.7-1.15-2.5-.02-.04-.13-.03-.19-.06-.31-.13-.62-.28-.94-.41-.83-.35-1.6-.91-2.59-.7-.1.02-.28.04-.32-.01-.45-.66-1.12-.39-1.71-.42-.56-.02-1.03-.15-1.29-.71-.04-.09-.23-.1-.32-.19-.88-.91-2.04-1-3.19-1.1-.48-.04-1.01.13-1.43-.03-1.38-.52-2.41.13-3.48.81-.43.27-.89.53-1.37.69-.2.07-.61-.04-.72-.21-.12-.19-.13-.62,0-.78.97-1.12,2.2-1.89,3.68-2.01,1.57-.12,3.12.17,4.69.38.93.13,1.69.38,2.36,1.01.27.25.67.58.97.54,1.21-.17,2.1.71,3.22.84.71.08,1.36.59,2.05.89.1.04.25,0,.37-.02-.01-.1.01-.26-.04-.29-.75-.42-1.24-1.27-2.28-1.19-.51.04-1.04-.1-1.22-.76-.04-.15-.23-.3-.38-.39-1.26-.76-1.83-2.06-2.57-3.23-.27-.44-.61-.85-.85-1.31-.52-.96-.99-1.95-1.49-2.92-.36-.7-.62-1.5-1.12-2.06-.66-.73-1.44-1.42-2.31-1.86-.86-.44-1.85-.76-2.9-.26-.92.44-1.91.73-2.85,1.11-1.01.41-2.06.77-2.98,1.33-1.62.98-3.31,1.78-5.12,2.33-1.71.52-3.45.84-5.24.99-.99.08-1.94.22-2.92-.02-.21-.05-.46-.07-.66,0-1.46.51-2.86.08-4.27-.2-.78-.16-1.56-.37-2.35-.46-1.33-.14-2.65-.27-3.92-.68-.75-.24-1.57-.37-2.22-.77-1.41-.87-2.92-1.49-4.44-2.1-1.27-.5-2.57-.88-3.83-1.43-.76-.33-1.48-.86-2.44-.83-.65.02-1.33-.31-1.97-.55-.79-.3-1.58-.51-2.44-.53-.85-.02-1.73-.04-2.54-.27-1.02-.3-2.07-.27-3.02-.09-.88.16-1.74.19-2.57.11-.73-.07-1.55-.1-2.11.12-.91.37-1.85.36-2.75.54-.96.19-1.87.42-2.75.86-.95.47-1.98.45-3,.08-.36-.13-.75-.22-1.12-.22-1.8.03-3.31-.59-4.51-1.95-.37-.42-.35-.55.17-.7.14-.04.3.02.44-.02,2.2-.66,4.02-1.84,5.22-3.86.39-.66,1.08-1.2,1.27-1.9.31-1.12,1.28-.63,1.86-1.02.11-.07.26-.09.37-.16.95-.56,1.92-1.08,2.84-1.68,1.6-1.05,3.17-2.15,4.74-3.24.75-.52,1.46-1.09,2.21-1.61,2.06-1.45,4.23-2.7,6.51-3.76,1.46-.68,2.95-1.26,4.55-1.56,1.73-.33,3.49-.61,5.16-1.15,1.53-.5,3.09-.69,4.63-.77,1.71-.09,3.3-.72,5.03-.77,1.45-.04,3.93-.24,5.46.05.2.04.42-.03.64-.05-.05-.23-.04-.48-.15-.67-.39-.72-.84-1.42-1.24-2.14-.19-.36-.27-.78-.48-1.12-.66-1.08-1.25-2.16-1.2-3.49,0-.21-.14-.47-.29-.64-.26-.31.03-.2.15-.27.19-.12.33-.28.49.01.18.33.34.67.55.99.61.93,1.21,1.87,1.89,2.75.36.47.38,1.03.62,1.52.43.86.82,1.73,1.36,2.54.25.38.36.77.87.82.96.08,1.93.22,2.89.21,1.18-.01,2.27.45,3.42.58.74.08,1.46.44,2.2.52,1.36.15,2.61.62,3.85,1.13,1.35.56,2.68,1.18,4.02,1.76.75.33,1.54.58,2.25.96.7.37,1.36.84,1.99,1.32.62.48,1.17,1.04,1.79,1.53.22.18.37.76.75.41.29-.26-.18-.55-.26-.84-.15-.51-.44-1.08-.34-1.55.09-.42.09-.65-.19-.93-.08-.08-.08-.25-.12-.37.17-.03.43-.15.5-.07.3.29.68.61.78.98.36,1.41,1.09,2.65,1.73,3.93.68,1.37,1.34,2.76,1.63,4.3.2,1.05.65,2.05.66,3.16,0,.44.06.99.32,1.29.75.86.76,1.98,1.16,2.96.6,1.48,1.02,3.04,1.79,4.46.18.33.3.76.57.95.15.1.57-.24.89-.35.29-.1.69-.07.88-.26.66-.67.69-1.48.26-2.39-.55-1.17-1.09-2.35-1.55-3.56-.25-.64-.36-1.33-.48-2.01-.31-1.77-1.07-3.51-.33-5.37.2-.5.39-1.01.5-1.57.17-.82.28-1.65.47-2.46.17-.74.26-1.5.09-2.13-.38-1.41-.49-2.93-1.39-4.18-.21-.29-.22-.71-.34-1.07-.51-1.56-.97-3.14-1.57-4.66-.45-1.14-1.02-2.24-1.64-3.3-.87-1.46-1.77-2.9-2.78-4.27-1.08-1.47-1.99-3.11-3.6-4.14-.45-.28-.96-.59-1.22-1.02-.73-1.21-1.99-1.53-3.12-2.08-1.32-.64-2.77-1.05-3.99-1.82-1.37-.86-2.89-1.44-4.25-2.32-.37-.24-.88-.29-1.19-.57-.76-.69-1.59-1.26-2.45-1.82-.67-.44-1.55-.66-1.91-1.58-.18-.47-.71-.82-1.13-1.17-.51-.42-1.1-.76-1.6-1.19-.5-.42-1.03-.86-1.38-1.4-.77-1.18-1.43-2.44-2.52-3.38-.07-.06-.1-.18-.15-.27-.37-.7-.74-1.39-1.1-2.09-.44-.85-1-1.66-1.3-2.55-.38-1.14-.86-2.22-1.41-3.29-.35-.68-1.03-1.15-1.13-1.96,0-.08-.05-.16-.07-.23.48,0,.96-.09,1.42,0,.27.05.59.34.69.59.28.77.87,1.38,1.04,2.23.15.72.61,1.36.89,2.05.15.38.09,1.01.34,1.16,1.06.63,1.07,1.87,1.72,2.74.35.46.7.96,1.03,1.45.33.51,1.01.84,1.02,1.64M430.23,160.93c1.22.04,2.11-.43,3.06-.63,1.81-.38,3.36-1.32,4.94-2.22,1.08-.61,2.35-.91,3.52-1.36.98-.38,1.98-.74,2.93-1.2.71-.34,1.37-.55,2.1-.16.03.02.07.04.1.03.31-.04.62-.08.92-.12-.22-.18-.43-.38-.66-.54-.78-.51-1.62-.9-2.53-1.09-.3-.06-.4-.16-.32-.4.03-.12.2-.21.33-.28,1.26-.67,2.12.25,3,.83,1.85,1.23,3.12,3.05,4.53,4.72.11.13.2.29.23.45.21,1.02.83,1.87,1.18,2.83.35.96.95,1.75,1.53,2.57.59.84,1.04,1.78,1.6,2.65.21.33.54.6.85.86.17.14.4.19.61.29-.02-.2,0-.41-.05-.6-.16-.61.11-1.21.71-1.32.42-.08.91.06.96-.58.57-.01,1.14-.03,1.7-.03.05,0,.11.15.15.14.19-.03.38-.1.56-.15-.11-.09-.27-.17-.33-.29-.53-1.03-1.62-1.58-2.13-2.65-.38-.81-.98-1.51-1.47-2.26-.9-1.38-1.86-2.73-2.35-4.33-.41-1.34-1.02-2.63-1.28-3.99-.24-1.3-1.06-2.41-1.09-3.77,0-.42-.23-.87-.45-1.24-1.19-2.01-2.38-4.04-4.22-5.54-1.18-.96-2.36-1.91-3.8-2.56-1.89-.86-3.83-1.61-5.72-2.45-1.81-.81-3.75-.91-5.56-1.52-1.34-.45-2.76-.35-4.07-.84-.19-.07-.44-.01-.66,0-1.28,0-2.54-.2-3.8-.41-.9-.15-1.84,0-2.76-.04-.64-.02-1.26-.02-1.91-.16-.65-.15-1.4.09-2.1.2-.76.12-1.5.31-2.26.41-2.77.35-5.57.51-8.24,1.44-.81.28-1.68.46-2.54.54-1.64.15-3.14.76-4.64,1.35-2.45.95-4.73,2.2-6.84,3.76-.65.48-1.26,1.02-1.93,1.48-1.78,1.22-3.54,2.46-5.37,3.58-1.28.78-2.68,1.35-4.01,2.06-.76.4-1.01,1.25-1.48,1.9-1.22,1.69-2.41,3.42-4.59,4.04-.08.02-.14.12-.21.19.09.08.17.24.26.24.51.02,1.03.03,1.55,0,.68-.03,1.34,0,1.92.44.19.14.37.17.68-.03.95-.62,2.01-1.02,3.2-1.08.9-.05,1.79-.27,2.69-.44.61-.12,1.2-.36,1.81-.41,1.55-.12,3.11-.18,4.66-.23,1.36-.04,2.68.32,4.02.39,1.74.1,3.3.86,4.97,1.08,1.33.17,2.37.9,3.59,1.25,1.17.34,2.32.79,3.45,1.27,1.19.51,2.32,1.16,3.51,1.67,1.1.46,2.22.92,3.38,1.17,1.81.4,3.69.49,5.48.95,2.04.53,4.08.38,6.13.39.85,0,1.71-.13,2.56-.21M463.4,182.82c-.17-.15-.22-.21-.28-.22-.37-.03-.32.27-.26.44.14.38.34.73.52,1.09.1-.09.26-.16.3-.27.14-.39.1-.77-.28-1.04M465.06,186.47c-.4-.41-.27-1.14-1-.99-.1.02-.2.05-.29.08.05.08.11.15.16.23.23.3.43.63.69.9.26.26.45.19.44-.21M469.04,141.58c-.19.19-.32.26-.33.34-.02.21,0,.43.02.65.17-.11.38-.18.51-.33.12-.14.24-.36.23-.55-.01-.34-.23-.27-.43-.12M491.27,210.02c.11-.18.14-.29.11-.32-.19-.18-.41-.33-.61-.5-.02.07-.04.13-.05.2-.02.39.16.6.55.62M466.83,142.46c-.02-.32-.05-.41-.07-.51-.2.24-.4.49-.59.73.09.04.21.13.26.1.15-.08.27-.21.4-.32M408.89,134.28c.16.32.16.32.59.11.09-.04.19-.07.29-.1-.05-.04-.1-.12-.15-.11-.24.02-.48.07-.73.1M399.83,136.93c.15.11.18.11.22.11.33,0,.66.04.86-.31-.11-.04-.23-.12-.33-.1-.16.03-.31.12-.47.19-.09.04-.19.07-.28.11M462.74,168.45c-.22.15-.22.29-.22.44.17-.02.34-.04.51-.06-.1-.13-.19-.25-.29-.38M437.64,159.49c.26.11.43.16.54.1.13-.07.19-.24.29-.37-.13.01-.26,0-.37.05-.16.06-.3.15-.46.23M414.75,133.51c0,.23.38.31.52.15-.06-.05-.12-.12-.19-.14-.1-.02-.21,0-.32,0M417.74,133.17c.21.11.32.13.42.11.08-.02.15-.08.22-.12-.06-.03-.12-.09-.17-.09-.16.02-.32.07-.48.1M469.37,185.92c-.18.07-.15.15-.11.22.04-.07.07-.15.11-.22M421.5,132.95c.14,0,.17-.12.2-.24,0,0-.09-.02-.14-.04-.02.09-.04.19-.06.28M424.37,132.95c.2.09.3.07.39.05-.01-.05-.03-.14-.04-.14-.12.02-.24.05-.35.08M389.43,143.57c-.12-.04-.13.02-.13.09.04-.03.09-.06.13-.09M404.8,135.28c-.04.12.02.13.09.13-.03-.04-.06-.09-.09-.13M408.12,134.83c.04-.12-.02-.13-.09-.13.03.04.06.09.09.13M450.02,118.58c.12.04.13-.02.13-.09-.04.03-.09.06-.13.09M428.13,103.76c.12.04.13-.02.13-.09-.04.03-.09.06-.13.09M475.23,203.72c.12.04.13-.02.13-.09-.04.03-.09.06-.13.09M474.7,203.85s-.09.06-.13.09c.12.04.13-.02.13-.09Z"/>
    <path class="st0" d="M421.47,103.69c-.01,1.74.28,3.49-.18,5.22-.15.57-.16,1.19-.23,1.78-.15,1.15-.62,2.27-.44,3.46-.6.74.15,1.71-.42,2.46.47.78.37,1.69.53,2.54.17.89.71,1.7.55,2.65-.02.15-.12.29-.18.43-.14-.1-.31-.17-.43-.29-.06-.06-.03-.2-.05-.3-.3-1.2-1.15-2.21-1.12-3.51-.68-.75-.56-1.72-.62-2.61-.06-.83-.27-1.74.41-2.47.04-.04.03-.15,0-.21-.52-1.06.25-2.12.01-3.17-.02-.11-.03-.23,0-.33.32-1.26.68-2.51.44-3.83-.08-.45-.18-.89-.22-1.34-.07-.96-.14-1.94-.17-2.89-.07-2-.56-3.93-.73-5.91-.05-.61-.23-1.23-.44-1.8-.3-.8-.71-1.55-1.03-2.33-.1-.23-.23-.48.25-.64.39-.13.76-.35,1,.01.82,1.27,1.37,2.66,1.8,4.11.51,1.74.64,3.53.87,5.42.15,1.26.42,2.42.41,3.57Z"/>
    <path class="st0" d="M442.95,127.61c.6.86,1.26,1.68,1.83,2.56.16.25.67.57.19.97-.41.34-.8.21-1.13-.17-.23-.27-.46-.54-.67-.83-.87-1.18-1.74-2.37-2.61-3.55-.15-.2-.35-.36-.48-.57-1.08-1.76-2.46-3.29-3.83-4.8-1.44-1.59-3.09-2.99-4.65-4.47-.12-.12-.31-.16-.44-.27-.96-.82-1.94-1.58-2.64-2.72-.51-.82-.12-1.69-.56-2.43-.02-.03.03-.15.05-.15.29-.01.59-.04.88.01.07.01.07.31.12.48.06.19.13.39.22.57.48,1,1.24,1.82,2.1,2.42,1.79,1.25,3.38,2.74,4.96,4.21,1.65,1.54,2.96,3.45,4.41,5.21.19.24.3.54.48.79.43.63.88,1.25,1.38,1.94.17.3.24.58.39.8Z"/>
    <path class="st0" d="M422.99,191.18c.22-.97.92-1.68,1.41-2.5.57-.95,1.23-1.85,1.86-2.76.11-.15.22-.4.35-.42.35-.03.77-.07,1.05.1.61.36-.31.46-.21.81.03.12-.12.31-.21.45-.55.88-1.05,1.8-1.7,2.6-.52.64-.9,1.32-1.16,2.07-.34,1-.48,2.08-.86,3.07-.83,2.14-1.23,4.31-.93,6.61.21,1.62.3,3.26.46,4.9.06.67.03,1.39.26,1.99.15.39.19.6-.13.78-.35.19-.66-.04-.81-.33-.23-.45-.44-.93-.55-1.43-.29-1.25-.63-2.5-.73-3.77-.13-1.57-.09-3.17-.01-4.75.05-1.03.18-2.08.65-3.03.2-.41.4-.78.46-1.25.08-.6.34-1.18.58-1.82.11-.48.12-.9.22-1.31Z"/>
    <path class="st0" d="M435.84,177.65c1.24-.86,2.51-1.67,4.02-2.03.97-.23,1.92-.54,2.89-.75.58-.13,1.12,0,1.55.53.25.32.24.5-.06.7-.2.13-.42.26-.65.3-1.04.17-2.11.21-3.12.48-.7.19-1.48.29-2.08.84-.59.53-1.52.59-1.98,1.33-.01.02-.07,0-.11,0-.8.21-1.52.6-2.23,1.01-.29.16-.64.23-.97.31-.09.02-.28-.04-.28-.07,0-.12,0-.29.09-.37.32-.35.65-.68,1-1,.15-.14.35-.21.58-.37.49-.34.93-.62,1.35-.91Z"/>
    <path class="st0" d="M436.32,189.98c-.02-.06.01-.14.02-.21.08.02.18.01.23.06.15.15.35.31.4.49.24.95.64,1.91.44,2.9-.2.99.18,1.94.01,2.91-.01.06-.07.12-.1.18-.45.79-.56,1.69-.79,2.55-.17.62-.28,1.31-.85,1.74-.1.07-.25.08-.37.12-.03-.13-.12-.3-.08-.4.2-.44.49-.83.64-1.28.33-1.01.6-2.03.9-3.16-.01-2.05.14-4-.44-5.89Z"/>
    <path class="st0" d="M418.75,181.68c.9-.49,1.84-.71,2.84-.92,1.02-.22,1.74.05,2.52.51.1.06.18.16.27.24-.14.07-.27.17-.42.19-.13.02-.33.02-.41-.06-.88-.98-1.86-.41-2.79-.17-1.75.44-3.28,1.36-4.79,2.31-.44.28-.72.58-.9,1.06-.11.28-.2.68-.63.71-.1,0-.25,0-.3-.05-.05-.06-.03-.21,0-.3.39-1.09,1.12-1.88,2.21-2.44.84-.39,1.65-.68,2.39-1.08Z"/>
    <path class="st0" d="M434.71,130.99c-.8.07-1.57.32-2.44.15-.74-.15-.88-.81-1.43-1.04-.08-.03-.16-.32-.12-.36.11-.1.3-.19.44-.16.19.04.38.17.53.3.48.4,1.04.59,1.65.53,1.04-.11,2.11-.18,3.1-.49.55-.17,1.06-.13,1.58-.14.28,0,.7.07.69.58-1.4,0-2.67.52-3.99.63Z"/>
    <path class="st0" d="M428.36,173.51c-.18-.03-.3-.32-.45-.49.16-.05.31-.14.47-.14.59-.02,1.26.18,1.74-.05.72-.34,1.18-.04,1.73.26.36.19.75.33,1.1.52.48.26.96.52,1.41.83.17.12.26.37.39.55-.2.01-.43.1-.59.03-.52-.25-1.01-.56-1.52-.84-.89-.48-1.72-1.25-2.96-.64-.51,0-.93.05-1.32-.02Z"/>
    <path class="st0" d="M427.33,206.25c-.07.07-.33-.04-.5-.07.03-.13.03-.28.11-.37.25-.3.44-.57.56-.99.39-1.38-.07-2.52-.8-3.6-.36-.53-.34-1.07-.34-1.63,0-.01.19-.06.24-.03.15.11.36.24.38.39.15.98.73,1.76,1.09,2.64.17.41.37.97.21,1.31-.18.41-.12.77-.17,1.26-.26.44-.5.79-.8,1.09Z"/>
    <path class="st0" d="M430.12,121.2c-.19.05-.39.14-.58.14-1.35.01-2.71.01-4.06,0-.15,0-.3-.1-.45-.16.12-.17.21-.42.36-.48.29-.1.63-.08.94-.11,1.04-.11,2.07-.59,3.17.03.24.23.42.4.61.57Z"/>
    <path class="st0" d="M449.16,129.66c.12-.12.22-.28.37-.34.3-.14.79-.16.9-.38.12-.24-.11-.65-.18-.99-.02-.1.03-.27-.03-.31-.39-.32.05-.48.16-.51.18-.05.54-.2.54.28,0,.15.13.31.2.46.55,1.33.19,1.83-1.32,2.11-.29-.1-.46-.21-.64-.31Z"/>
    <path class="st0" d="M416.78,200.02c-.24.12-.51.21-.77.26-.15.02-.32-.08-.48-.12.08-.15.13-.33.25-.44.29-.26.58-.52.92-.7.42-.21.88-.37,1.34-.49.41-.12.4.22.35.46-.04.16-.21.28-.43.42-.47.21-.81.43-1.18.62Z"/>
    <path class="st0" d="M439.49,116.91c-.08.05-.23.04-.32,0-.13-.05-.26-.14-.33-.25-.03-.06.07-.22.15-.3.25-.27.5-.54.78-.78.4-.35,1.08-.28,1.41.24-.56.44-1.12.78-1.69,1.1Z"/>
    <path class="st0" d="M444.29,188.71c.04-.81.13-1.62.21-2.43,0-.06.16-.14.23-.14.07,0,.16.11.2.18.5.97.07,1.88-.27,2.84-.17-.12-.38-.3-.37-.46Z"/>
    <path class="st0" d="M455.59,140.72s0-.06.01-.07c.42-.36.93-.27,1.42-.29.36-.02.37.24.29.42-.09.19-.37.48-.47.45-.35-.11-.91.43-1.12-.36-.08-.08-.11-.1-.13-.13Z"/>
    <path class="st0" d="M444.05,179.94c0,.14-.04.27-.07.41-.1-.08-.22-.14-.31-.23-.42-.47-.54-1.05-.49-1.65,0-.1.2-.27.31-.27.11,0,.29.14.32.26.08.26.09.55.18.88.06.24.06.42.05.6Z"/>
    <path class="st0" d="M435.45,188.16c-.15-.33-.21-.71-.28-1.08-.03-.16-.03-.34-.04-.5.17.11.44.18.5.33.2.5.32,1.03.41,1.6-.24-.08-.51-.17-.59-.36Z"/>
    <path class="st0" d="M460.15,156.79c-.2.05-.41.09-.61.16-.12.05-.22.19-.35.2-.1.01-.22-.1-.33-.15.11-.09.22-.18.44-.28.35.02.6.05.84.07Z"/>
    <path class="st0" d="M456.47,136.97c.17-.05.35-.12.52-.14.4-.03.44.15.11.44-.28-.1-.46-.2-.63-.3Z"/>
    <path class="st0" d="M454.48,101.67c.05,0,.11.06.17.09-.07.04-.14.11-.22.12-.1.02-.21,0-.37-.05.1-.09.26-.14.42-.16Z"/>
    <path class="st0" d="M382.36,121.79c.04.07.07.15,0,.22-.07-.07-.04-.15,0-.22Z"/>
    <path class="st0" d="M463.6,107.17c0-.07.01-.13.08-.14.01.08-.03.11-.08.14Z"/>
    <path class="st0" d="M417.1,101.09c.07,0,.13.01.14.08-.08.01-.11-.03-.14-.08Z"/>
    <path class="st0" d="M399.62,145.59c1.29-.76,2.62-1.49,4.02-2.02.95-.36,1.88-.98,2.99-.79.09.02.18-.08.28-.11.88-.19,1.76-.42,2.65-.54,1.07-.13,2.15-.16,3.22-.23.15,0,.32.05.43-.02.83-.46,1.75-.3,2.56-.16,1.67.28,3.37.33,5.04.59,1.31.21,2.66.16,3.99.25.71.05,1.41.13,2.12.22.52.06,1.11.02,1.55.25,1.08.57,2.29.51,3.41.84.41.12,1.11.11,1.07.51-.06.61-.75.34-1.19.38-.09,0-.19-.07-.29-.09-1.25-.26-2.5-.68-3.76-.75-2.12-.11-4.23-.42-6.33-.43-3.77-.03-7.55-.32-11.31.35-1.44.26-2.93.37-4.35.74-1.04.28-2.13.51-3.09,1.07-1.03.61-2.02,1.3-3.19,1.62-.53.14-1.06.27-1.57.47-1.35.52-2.66.43-3.95-.17-.09-.04-.24-.17-.22-.23.03-.12.14-.28.24-.31.55-.12,1.1-.26,1.65-.27.8-.02,1.51-.23,2.27-.68.66-.19,1.23-.19,1.78-.52Z"/>
    <path class="st0" d="M448.27,148.44c-.44-.27-.85-.61-1.3-.84-1.48-.77-2.97-1.5-4.45-2.26-.16-.08-.3-.23-.45-.34.21-.07.41-.16.63-.2.18-.03.38-.06.55,0,1.67.62,3.26,1.4,4.71,2.44.69.5,1.32,1.12,2.2,1.32.11.03.3.13.3.18-.01.12-.11.33-.2.34-.29.05-.59.02-.95-.03-.38-.24-.72-.4-1.04-.6Z"/>
    <path class="st0" d="M410.85,153.32c-.21.28-.49.47-.83.22-.36-.27-.37-.58-.03-.91,1.35-1.3,2.54-2.8,4.2-3.74.71-.4,1.41-.94,2.32-.79.12.02.22.11.34.17-.07.12-.1.29-.2.35-.59.36-1.16.75-1.79,1.01-1.36.56-2.24,1.7-3.31,2.61-.07.06-.08.19-.17.34-.21.29-.36.52-.53.74Z"/>
    <path class="st0" d="M433.77,140.32s-.48-.19-.53-.35c-.1-.36.24-.28.43-.26.82.06,1.64.21,2.45.2.81-.01,1.52.16,2.2.58.57.35,1.2,1.45,1.07,2.08-.04.17-.25.31-.39.46-.09-.12-.19-.23-.28-.35-.07-.08-.19-.16-.2-.25-.09-1.15-.94-1.41-1.85-1.62-.6-.14-1.2-.29-1.86-.5-.4-.22-.72-.27-1.05.01Z"/>
    <path class="st0" d="M434.24,152.47c.46-.34.84-.8,1.24-1.22.48-.52.91-1.08,1.67-1.24.35-.08.65-.38,1-.51.14-.05.47.09.5.2.05.19-.03.45-.14.64-.06.11-.27.2-.4.19-.8,0-1.41.33-1.94.92-.51.57-1.07,1.09-1.61,1.63-.38.38-.75.8-1.16,1.14-.23.19-.33.74-.83.3.36-.93.98-1.51,1.69-2.04Z"/>
    <path class="st0" d="M414.55,138.59c.45.16.92.26,1.36.45.54.24,1.02.57.93,1.27-.01.1-.22.24-.33.24-.16,0-.32-.11-.45-.22-.95-.78-1.99-1.38-3.24-1.53-.06,0-.13-.14-.16-.22-.02-.05.04-.17.08-.18.37-.08.74-.55,1.24-.03.26.07.41.16.57.22Z"/>
    <path class="st0" d="M432.23,155.85c.05-.08.2-.09.3-.14,0,.11.06.25.02.31-.46.64-.36,1.46-.66,2.14-.11.25-.26.54-.47.66-.21.12-.53.04-.8.04.07-.18.12-.37.23-.53.19-.29.41-.56.61-.95.26-.59.51-1.07.78-1.54Z"/>
    <path class="st0" d="M401.49,141.05c.15.07.22.33.33.51-.2.12-.43.36-.6.33-.46-.08-.91-.24-1.34-.43-.19-.08-.32-.31-.48-.47.18-.14.37-.27.66-.41.56.15,1.02.27,1.44.47Z"/>
    <path class="st0" d="M400.8,149.66c.11-.01.32.14.34.24.02.12-.08.31-.19.4-.47.39-.97.22-1.51-.05.33-.47.85-.53,1.36-.59Z"/>
  </g>
  <g>
    <path class="st0" d="M152.11,724.92c-.54-.71-1.28-.68-1.83-.55-1.18.28-1.93-.48-2.82-.9-.64-.31-1.23-.75-1.89-1.01-.3-.12-.97-.03-1.03.13-.4,1.05-1.46.88-2.19,1.3-.29.16-.79.14-.46.72.04.07-.2.42-.32.42-.91.03-1.75.69-2.75-.24-.8-.74-1.95-1.19-2.84-1.91-.58-.47-1.21-.95-1.64-1.55-.36-.5-.77-.49-1.23-.48-1.38.02-1.41.04-1.76-1.15-.17-.59-.1-1.29-.38-1.82-.25-.48-.85-.76-1.25-1.17-.4-.4-.83-.73-.61-1.5.14-.48-.15-1.06.47-1.43.11-.07.08-.5,0-.72-.44-1.13-.26-2.31.15-3.31.58-1.41.31-2.8.3-4.19,0-.21-.53-.61-.79-.59-.79.06-1.41-.58-2.26-.35-.44.12-.65-.54-.61-1.02.05-.45.27-.82.52-1.21.72-1.14,1.52-2.09,3.01-2.11.26,0,.51-.12.38-.53-.08-.26.05-.57.03-.85-.04-.53.22-.85.64-1.11.24-.15.44-.37.64-.57,1.23-1.22,1.19-2.84,1.37-4.39.04-.32.06-.72.25-.92.21-.23.6-.31.95-.05.41.29.67-.16.79-.35.58-.93,1.34-1.7,2.12-2.46.23-.23.12-.29-.05-.51-.31-.39-.87-.65-.85-1.26.01-.26.04-.63.21-.76.29-.21.69-.38,1.06-.07.16.14.28.33.45.45.54.38.87.34,1.32-.15.22-.24.38-.54.62-.76.5-.45,1.03-.78,1.77-.77.4,0,.61.02.81.4.21.39,0,.56-.22.79-.42.44-.81.92-1.24,1.35-.17.18-.46.26-.6.45-.14.2-.3.57-.21.71.17.27.57.29.82.06.85-.79,2.02-1.13,2.8-2.04.2-.23.63-.26.95-.39.74-.29.84-.46.86-1.35,0-.42-.11-.98.11-1.24.37-.44.82.13,1.25.17.33.03.72-.1,1.02-.27.86-.48.97-.52,1.74.21.34.33.46.15.53-.14.1-.42.12-.85.19-1.28.04-.22.06-.54.2-.62.45-.24.52-.68.39-1-.24-.59.41-.53.49-.85.26.1.51.03.8.25.73.55.91,1.3,1.15,2.09.26.86.65,1.67.97,2.51.09.23.21.42.45.19.07-.07.05-.3,0-.44-.35-.97-.74-1.93-1.06-2.91-.14-.43.08-.79.51-.99.42-.19.75,0,.97.33.36.55.75,1.11.98,1.72.73,1.92,1.56,3.8,1.85,5.86.02.14.23.24.35.37.04-.16.08-.31.13-.47.2-.67.36-1.36.6-2.01.55-1.46,1.15-2.89,1.73-4.34.07-.18.15-.36.24-.53.42-.79,1.01-.87,1.62-.23.07.08.14.16.21.24.87.99,1.31,1.1,2.52.7.42-.14.86-.27,1.3-.3.66-.05.82.11.69.76-.1.51.1.87.28,1.29.24.56.5.44.85.17.52-.39,1.05-.76,1.55-1.17.32-.26.65-.28.91,0,.35.36.78.74.9,1.19.09.35-.19.83-.39,1.22-.19.39-.49.73-.72,1.11-.07.11-.11.3-.07.42.28.8.59,1.58.87,2.38.17.5.42.63.94.46,1.58-.51,3.22-.47,4.85-.53.32-.01.72.02.94.2.26.22.38.62.5.96.13.35-.09.52-.39.69-1.2.67-2.36,1.4-3.3,2.43-.9.98-.94,1.53-.13,2.53.72.89,1.43,1.78,1.75,2.91.07.23.3.48-.1.67-.2.1-.5.3-.51.46-.04,1.29-1.38,2.2-1,3.62.16.62.15,1.29.24,1.94.02.12.13.22.2.33.06-.09.13-.18.19-.27.24-.37.49-.74.72-1.12.28-.46.51-.28.78.02.46.52.61,1.09.26,1.71-.65,1.17-.4,2.3.06,3.44.19.47.55.72.96.52.66-.31.84.24.98.54.18.39.71.87-.05,1.34-.26.16-.43.59-.47,1.06-.09,1.01-.45,1.97-1.43,2.52-.31.17-.67.27-.94-.04-.23-.26-.16-.57.03-.85.23-.33.48-.65.7-.98.05-.08.03-.21.04-.32-.14-.01-.3-.08-.41-.04-.69.3-1.1.92-1.56,1.46-.07.08.04.4.15.52.5.52,1.01,1.03,1.56,1.48.35.29.26.41-.08.53-.11.04-.23.13-.33.11-1.35-.2-2.3.67-3.33,1.27-.37.22-.81.39-1.05.2-.34-.27-.46-.77-.15-1.24.09-.14.08-.34.11-.52-.15.05-.29.14-.44.15-.28.03-.63.11-.85,0-.5-.27-.83-.1-1.19.23-.15.14-.41.16-.62.23,0-.25-.12-.59,0-.73.19-.23.47-.42.16-.67-.14-.11-.49-.02-.72.06-.27.1-.51.28-.75.44-.21.13-.41.28-.61.43.18.12.36.26.56.36.66.32,1.32.67,2.01.91.43.15,1.03-.05,1.35.19.35.26.37.92.69,1.25.34.34.91.64.73,1.11-.19.52-.85.18-1.28.29-.23.06-.9-.26-.63.51.02.06-.36.38-.55.38-.54-.01-1.08-.08-1.6-.22-.46-.12-.79.02-1.18.23-.88.49-1.77.97-2.7,1.35-1.01.41-1.96.92-2.93,1.41-.92.47-1.96.68-3,.19-.15-.07-.35-.08-.53-.06-.06,0-.17.22-.15.24.53.5-.04.98-.23,1.15-1.02.91-1.87,2.1-3.32,2.41-.45.1-.93.03-1.4.07-1.23.1-2.22-.58-3.3-.99-.46-.17-.99-.2-1.49-.18-1.22.05-2.33-.3-3.41-.81-.34-.16-.63-.36-.46-.76.15-.35-.16-.91.58-1.02.6-.09,1.16-.28,1.72.07.63.38,1.33.36,2.02.43,1.02.1,1.77.14,2.8.76.65.39,1.75.35,2.29-.21.68-.7,1.6-1.06,2.23-1.87.38-.49,1.29-.56,1.96-.83.09-.04.2-.13.22-.21.02-.07-.07-.2-.14-.25-.77-.54-1.07-.5-1.92.1-1.13.8-2.23,1.64-3.49,2.23-.17.08-.38.09-.57.15-.42.15-.46-.19-.51-.42-.06-.32.13-.27.4-.29.37-.03.4-.31-.1-.53M155.31,716.29c.06.04.13.07.19.11-.05-.07-.09-.14-.09-.32-.07-.15-.14-.3-.21-.45-.05.04-.15.12-.14.13.1.15.2.29.26.53M166.35,712.03c.35-.07.71-.15,1.06-.22.32-.06.19-.25.11-.39-.25-.41-.69-.44-.98-.06-.14.18-.2.41-.4.57-.52.05-.62.48-.76.85-.04.1.04.24.06.36.11-.05.28-.06.33-.15.18-.33.32-.68.59-.97M165.54,716.01c.79.21,1.42-.75,2.24-.3.01-.05.04-.11.04-.16-.02-.47-.42-.92-.76-.78-.63.26-1.35.45-1.73,1.15-.07.03-.15.03-.2.08-.12.11-.23.23-.34.34.08.07.21.2.22.19.12-.11.23-.24.33-.37.04-.06.06-.13.2-.15M160.61,721.16c-.46.29-.9.63-1.4.85-.58.25-.36.76-.3,1.06.08.39.5.28.86.16,1.11-.38,2.24-.71,3.36-1.08.82-.27,1.63-.68,2.46,0,.06.05.24-.05.36-.08-.06-.11-.1-.26-.19-.33-.99-.75-2.24-.93-3.32-1.49-.21-.11-.79-.25-.98.37-.06.21-.46.32-.86.54M153.21,693.59c-.24.53-.49,1.05-.72,1.58-.02.04.12.2.16.19,1.51-.28,2.86-.82,4.02-1.94.42-.4.26-.71.27-1.03.01-.31-.23-.63-.32-.96-.16-.54-.28-1.08-.44-1.62-.03-.09-.16-.14-.24-.21-.08.11-.22.22-.22.33-.01.36.07.72.02,1.07-.05.36-.08.85-.32,1.03-.65.52-1.4.9-2.21,1.55M135.93,696.13c-.11.42-.3.84-.31,1.27-.02.96.02,1.93.11,2.88.04.34.32.65.49.98.2-.24.4-.5.61-.73.19-.21.43-.37.61-.59.11-.13.24-.34.22-.49-.18-1.18-.37-2.37-.61-3.54-.05-.25-.35-.44-.53-.66-.17.22-.33.44-.6.88M148.72,686.66c-.14.17-.25.35-.41.5-.26.24-.35.5-.16.79.32.49,1,.83.59,1.59,0,.01.09.1.15.14.67.41.49.98.28,1.54-.07.18-.22.35-.22.53,0,.2.12.4.18.6.15-.11.35-.2.44-.35.6-1.06.74-2.21.54-3.39-.16-.93-.36-1.84,0-2.78.14-.37-.08-.48-.48-.4-.58.12-.59.64-.91,1.23M163.58,698.86c-.15.53-.34,1.05-.44,1.59-.03.18.06.59.46.33.65-.44,1.36-.94,1.4-1.75.04-.63.39-1.26.07-1.94-.09-.18.16-.63.38-.82.29-.25.7-.5,1.06-.5.36,0,.38-.18.45-.36.07-.19-.56-1.1-.77-1.09-.2,0-.58.18-.58.19.25.83-.64,1.1-.84,1.72-.28.84-.72,1.62-1.19,2.64M168.81,690.27c-.74.54-1.03,1.29-.77,2.14.33,1.08.64,2.17,1.71,2.89.34.23.39.32.63,0,.15-.2.35-.36.51-.55.15-.18.28-.39.41-.59-.24,0-.47-.02-.7,0-.15.02-.29.11-.44.15-.56.16-.93-.04-1.12-.59-.27-.78-.16-1.14.51-1.73.23-.21.63-.34.49-.76-.12-.4-.24-.83-.46-1.18-.13-.2-.45-.5-.77.21M137.72,717.54c.18-.37.05-.7-.35-.65-.84.11-1.53-.19-2.24-.54-.19-.09-.38-.16-.25.2.04.11-.06.28-.11.42-.3.87-.07,2,.58,2.53.16.14.48.29.62.23.5-.24,1-.2,1.52-.19.07,0,.14-.05.22-.08-.06-.08-.1-.18-.18-.22-.17-.1-.35-.16-.52-.25-.69-.37-.71-.95-.04-1.35.16-.1.36-.14.75-.11M163.76,710.71c0-.18.03-.37-.03-.53-.24-.67-.37-.71-.88-.18-.64.67-1.31,1.3-2.07,1.85-.26.18-.39.71-.38,1.08.01.56.23.63.67.29.53-.41,1.01-.83,1.73-.94.87-.14.88-.24.96-1.56M157.27,701.72c.6-.54,1.16-1.11,1.51-1.85.03-.07.23-.07.35-.11.02.1.08.21.05.29-.3.77-.83,1.38-1.36,2-.08.09-.08.25-.12.38.14,0,.34.08.42.01.45-.4.9-.82,1.31-1.27.64-.68.6-.68.16-1.47-.21-.38-.29-.83-.45-1.24-.09-.22-.22-.43-.33-.64-.07-.13-.03-.37-.35-.24-.3.12-.18.26-.11.41.23.54.47,1.06.02,1.61-.41.51-.82,1.01-1.2,1.54-.06.08.03.28.1.58M133.2,708.18c-.02.43-.04.86-.04,1.29,0,.07.15.19.24.2.08,0,.24-.15.22-.19-.17-.68.44-1.12.52-1.7.12-.87.32-1.67,1.04-2.26.06-.05.08-.29.06-.3-.27-.11-.57-.31-.81-.26-.25.05-.65-.01-.68.56-.04.82-.3,1.64-.56,2.66M158.37,705.17c-.52.11-.51.62-.68.97-.08.16-.05.49.07.61.09.1.47.09.58-.01.55-.52,1.32-.69,1.82-1.32.3-.39.66-.76.31-1.13-.46-.49-.81.17-1.06.4-.28.27-.42.6-1.03.48M161.51,686.66c-.29.63-.59,1.26-.86,1.9-.05.11,0,.26,0,.39.14-.07.32-.1.4-.21.68-.89,1.36-1.8,2.02-2.71.3-.42.06-.82-.18-1.14-.11-.16-.44-.37-.61.08-.19.5-.44.99-.77,1.69M139.4,708.34c-.11.18-.22.36-.33.54.19.03.41.13.58.08.83-.23,1.65-.47,2.46-.76.25-.09.29-1.14.05-1.35-.35-.31-.55.01-.82.23-.57.44-1.19.81-1.95,1.26M162.67,690.26c-.83.3-.6,1.39-1.32,1.78-.04.02,0,.2,0,.3.13-.02.31.01.37-.06.91-1.02,1.81-2.04,2.69-3.08.09-.11.08-.43-.01-.55-.13-.15-.33-.25-.54.07-.31.48-.73.89-1.2,1.54M161.2,709.03c.57-.49,1.13-.97,1.69-1.46.15-.13.27-.29.4-.44-.23-.04-.48-.17-.69-.11-.25.07-.5.25-.68.45-.72.8-1.42,1.61-2.09,2.44-.1.12-.02.39-.03.6.18-.06.42-.07.53-.19.28-.33.51-.7.86-1.27M157.16,715.61c-.15.15-.34.27-.45.45-.07.12-.02.32-.03.48.12-.04.24-.08.35-.12.96-.28,1.6-.96,2.16-1.74.09-.13.18-.26.28-.4-.2-.06-.46-.23-.59-.16-.31.16-.57.42-.83.66-.26.24-.49.51-.89.82M154.12,706.92c.18-.15.35-.31.53-.46-.27-.11-.57-.35-.79-.29-.81.23-1.6.56-2.39.86-.08.03-.13.16-.19.25.11.07.23.21.34.2.72-.07,1.43-.16,2.15-.27.08-.01.14-.16.36-.3M151.5,715.95c.21-.08.44-.14.64-.25.1-.06.13-.22.2-.33-.13-.04-.27-.14-.38-.1-.68.23-1.39.42-2,.77-.27.16-.34.67-.5,1.02.28-.1.58-.17.83-.32.37-.21.7-.48,1.21-.79M141.19,710.83c-.47.17-.94.37-1.41.52-.36.11-.72.31-.56.68.16.38.59.22.91.07.58-.27,1.16-.53,1.72-.82.11-.06.19-.2.28-.3-.15-.05-.3-.1-.46-.15-.1-.03-.21-.04-.47,0M141.28,718.15c.32.15.63.3.95.43.13.06.28.07.42.11-.05-.17-.06-.42-.17-.48-.94-.55-1.91-1.07-2.87-1.59-.08-.04-.2-.01-.31-.01.04.11.07.22.12.33.35.65,1.04.83,1.85,1.21M166.59,708.44c0,.14-.06.31,0,.42.12.25-.48.62.07.71.17.03.47-.41.62-.68.11-.2.14-.5.08-.73-.12-.48.31-1.36-.38-1.36-.5,0-.43.88-.38,1.64M152.88,704.05c-.58-.24-.8-.81-1.17-1.24-.07-.08-.25-.08-.38-.12-.02.1-.09.22-.06.31.13.47.57.96-.18,1.31.05.09.13.25.14.25.54-.27,1.22.13,1.65-.51M135.6,709.92c.26-.56.54-1.12.77-1.7.06-.15-.03-.35-.05-.53-.14.06-.36.08-.41.18-.33.65-.61,1.33-.93,1.98-.17.35-.18.66.19.85.05.02.29-.34.44-.53.02-.03.03-.07,0-.26M137.6,709.18c-.24.7-.48,1.4-.7,2.1-.03.09.1.22.15.33.09-.05.23-.08.25-.15.2-.77.63-1.43.98-2.12.02-.03.04-.08.03-.1-.08-.14-.17-.27-.26-.41-.1.1-.21.19-.46.35M167.52,685.84c.13-.11.27-.22.4-.33-.11-.09-.21-.23-.33-.26-.7-.16-1.52.78-1.32,1.5.12.43.43.13.49.06.24-.27.41-.6.76-.96M169.45,700.54c-.05-.6-.04-1.21-.16-1.8-.07-.33-.34-.62-.52-.92.01.33.02.66.04.98.02.25.02.51.09.74.11.36.27.71.56,1M143.72,713.4c.21.18.41.48.65.52.21.03.49-.2.68-.37.32-.28.04-.48-.13-.72-.25-.37-.44-.02-.63.03-.23.06-.42.25-.57.54M151.52,698.95c.08-.17.19-.34.23-.52.05-.25.77-.15.33-.59-.07-.07-.47.17-.7.29-.15.08-.26.26-.42.31-.45.17-.57.47-.33.86.02.04.48-.19.88-.35M150.04,720.52c.36-.12.67-.39.36-.7-.34-.34-.87-.35-1.35-.16-.06.02-.11.07-.16.1.26.24.53.48.79.71.06.05.14.07.36.04M143.92,690.72c-.13.12-.38.24-.37.36.02.45.12.9.19,1.35.13-.07.38-.14.38-.23.04-.46.02-.92-.2-1.48M138.13,703.02c-.15-.18-.4-.53-.43-.51-.32.19-.61.45-.91.68.15.17.35.5.45.47.33-.1.63-.32.89-.65M138.18,722.1c.17.08.34.18.52.23.16.05.33.04.5.06-.07-.17-.1-.39-.23-.5-.23-.2-.51-.37-.79-.48-.16-.06-.38.04-.57.07.12.17.24.35.58.61M161.3,696.03c.1-.04.28-.06.3-.13.06-.2.42-.42-.01-.64-.35-.18-.48-.03-.56.26-.07.24-.13.48-.16.73-.02.15.03.3.05.45.1-.15.19-.31.39-.67M137.16,692.34c.05-.17.11-.34.16-.52-.13.03-.27.02-.38.08-.12.06-.22.18-.3.28-.1.12-.17.26-.26.4.23.1.48.48.79-.24M129.63,702.31c0,.14-.07.32,0,.42.18.28.46.35.76.17.1-.06.24-.26.21-.31-.18-.28-.44-.35-.96-.28M175.1,711.07c.21.14.41.33.64.4.12.03.31-.15.47-.24-.14-.14-.26-.35-.42-.39-.15-.04-.35.11-.68.23M141.88,699.89c0-.13.01-.27-.03-.39-.01-.04-.25-.05-.29,0-.11.15-.18.34-.25.51-.08.19-.31.44.07.52.1.02.26-.28.49-.64M147.46,711.66c.07-.01.14-.03.21-.03.19,0,.38.01.56.02-.11-.14-.2-.34-.35-.42-.58-.32-.58.1-.43.43M153.05,712.57c.27.07.54.17.82.21.06,0,.15-.15.22-.23-.37.02-.65-.76-1.04.02M132.98,701.42c.49-.13.13-.52.23-.78,0,0-.13-.1-.19-.09-.31.02-.4.5-.04.87M153.27,720.73c-.05.17-.1.35-.16.52.24-.07.49-.11.71-.22.08-.04.08-.24.12-.37-.17,0-.35,0-.68.06M134.53,713.64c0-.14.07-.31.01-.4-.1-.14-.29-.22-.44-.32-.01.21-.04.43-.02.63,0,.06.19.09.44.08M139.21,705.95c-.13,0-.26,0-.39.01.07.22.1.62.21.64.43.09.39-.27.17-.65M141.58,722.77c.03-.07.09-.19.09-.2-.27-.14-.54-.28-.82-.41,0,0-.11.17-.1.17.22.17.45.33.82.43M157.61,712.11c.21.02.45.42.61,0,.03-.07-.23-.27-.38-.39-.08-.06-.2-.07-.3-.11,0,.12,0,.23.06.5M164.89,683.48c-.22.12-.39.27-.09.45.12.07.34.01.51-.01.08-.01.21-.1.21-.14-.03-.26-.15-.39-.63-.3M137.3,722.08c-.04-.06-.07-.17-.12-.17-.32-.05-.64-.09-.96-.12,0,0-.03.15-.02.15.31.07.63.13,1.1.14M164.49,718.85c-.11-.02-.21-.04-.32-.06,0,.06,0,.15.02.17.13.08.27.14.41.2.31.12.63.23.94.35-.28-.19-.57-.37-1.06-.66M136.52,714.31c-.21-.09-.42-.18-.63-.28.05.14.08.39.17.41.15.04.35.49.46-.13M134.35,714.59c-.25.38.09.44.31.51.08.02.2-.12.31-.19-.15-.13-.31-.25-.62-.32M147.36,716.6c.14-.04.29-.07.43-.11-.04-.09-.08-.17-.12-.26-.17.09-.35.18-.31.37M153.68,688.69c.06-.17.11-.33.17-.5-.15.03-.36,0-.46.1-.22.2-.14.37.29.4M154.81,728.22c.04.1.09.2.13.3.1-.18.2-.37.3-.55-.16.03-.33.06-.43.25M154.99,701.69c.18.03.37.05.55.08-.06-.13-.1-.35-.18-.37-.13-.03-.28.09-.37.29M154.04,698.19c-.06-.16-.07-.4-.35-.22-.06.04-.14.06-.22.08.1.09.19.21.31.27.09.05.21.02.26-.13M149.75,710.29c.07.03.13.08.2.09.12.02.24.02.37.02-.07-.07-.14-.17-.22-.2-.12-.05-.27-.05-.34.09M156.86,727.11c.1.02.2.04.29.07l-.17-.46c-.06.08-.12.16-.12.4M143.05,718.2s-.07.02-.1.04c-.02.01-.03.07-.03.07.15.1.3.2.46.29.02.01.09-.07.13-.1-.08-.07-.17-.13-.46-.29M155.99,727.6c-.02.1-.04.2-.07.29.05,0,.15.03.15.02.03-.12.05-.25-.08-.32M169.88,721.59c0-.09,0-.17,0-.26-.07.05-.14.11,0,.26M149.81,711.84c-.1-.02-.2-.04-.29-.07,0,.05-.03.15-.02.15.12.03.25.05.32-.08M159.2,723.96c.1.08.2.16.3.24,0,0,.06-.07.1-.11-.08-.06-.16-.12-.4-.12M144.27,719.15c.1.08.2.16.3.24,0,0,.06-.07.1-.11-.08-.06-.16-.12-.4-.12M138.26,705.26c0,.09,0,.17,0,.26.07-.05.14-.11,0-.26M166.45,719.88c.1.08.2.16.3.24,0,0,.06-.07.1-.11-.08-.06-.16-.12-.4-.12M154.31,728.75s-.1.06-.14.09c.07.02.13.04.14-.09M142.39,722.12s-.06-.1-.09-.14c-.02.07-.04.13.09.14M142.12,713.81s.06.1.09.14c.02-.07.04-.13-.09-.14M143.87,710.01s.06.1.09.14c.02-.07.04-.13-.09-.14M147.22,710.53s.06.1.09.14c.02-.07.04-.13-.09-.14M152.6,711.34s-.1.06-.14.09c.07.02.13.04.14-.09M157.8,713.09s.06.1.09.14c.02-.07.04-.13-.09-.14M133.24,699.75s.06.1.09.14c.02-.07.04-.13-.09-.14M172.06,711.85s.1-.06.14-.09c-.07-.02-.13-.04-.14.09M135.85,693.53s-.06-.1-.09-.14c-.02.07-.04.13.09.14M138.76,690.52s-.06-.1-.09-.14c-.02.07-.04.13.09.14M152.11,685.41s-.06-.1-.09-.14c-.02.07-.04.13.09.14M170.18,692.57s-.1.06-.14.09c.07.02.13.04.14-.09M148.59,727.01s-.06-.1-.09-.14c-.02.07-.04.13.09.14Z"/>
    <path class="st0" d="M213.61,677.81c.61,1.15,1.21,2.21,1.75,3.31.27.55.32,1.23.67,1.7.33.45,1.13.6,1.35,1.06.37.79.57,1.7.63,2.58.1,1.43.1,2.87.01,4.29-.04.72-.3,1.44-.56,2.12-.33.9-.94,1.72-.76,2.77-.62.71-.22,1.88-1.11,2.47-.08.05-.11.2-.15.31-.77,2.14-2.4,3.46-4.28,4.54-.68.39-1.36.77-2.13,1.01-.83.27-1.53.89-2.35,1.22-1.42.58-2.36,1.81-3.66,2.53-.68.38-1.33.83-2.05,1.09-1.11.41-1.95,1.07-2.76,1.93-.9.94-1.74,1.92-2.57,2.91-.58.69-1.19,1.35-1.78,2.02-1.03,1.18-2.19,2.22-2.92,3.66-.37.74-1.15,1.26-1.72,1.91-.36.41-.65.88-1,1.3-.3.35-.6.75-.98.98-.44.26-.74.57-.97,1.02-.12.25-.41.4-.58.63-.44.58-.9,1.16-1.27,1.78-.37.63-.67,1.31-.93,2-.42,1.15-1.21,2.06-1.97,2.95-.5.58-.92,1.21-1.38,1.81-.6.78-1.56,1.2-2.06,2.03-.46.75-1.2,1.25-1.86,1.6-.68.36-1.42.65-2.12,1.03-1.69.93-3.42,1.79-5.13,2.67-.17.09-.4.18-.56.14-.82-.19-1.34.27-1.91.75-.44.37-.98.69-1.53.87-1.17.39-2.42.57-3.57,1.02-1.82.7-3.7,1.04-5.62,1.18-1.9.14-3.81.34-5.71.32-1.25-.01-2.49-.35-3.74-.57-1.26-.23-2.53-.4-3.73-.92-.83-.36-1.8-.41-2.64-.76-.83-.34-1.64-.78-2.34-1.33-1.27-1-2.51-2.06-3.64-3.21-1.18-1.2-2.18-2.57-3.15-3.97-.98-1.42-1.6-3.1-3.01-4.23-.38-.3-.61-.8-.88-1.23-1.23-1.98-2.45-3.97-3.68-5.96-.69-1.12-1.69-2.16-1.98-3.38-.46-1.91-1.55-3.59-1.69-5.62-.11-1.75-.73-3.46-.97-5.2-.12-.9.06-1.86.14-2.78.11-1.21.39-2.43.35-3.64-.04-1.09.29-2.07.44-3.1.05-.32.17-.64.18-.96.03-1.98.99-3.56,2.31-4.89.41-.42.68-.88.78-1.34.29-1.31.9-2.41,1.61-3.54.59-.94,1.16-1.89,1.84-2.77,1.14-1.46,2.33-2.85,4.03-3.7.78-.39,1.5-.91,2.26-1.34.52-.29,1.06-.56,1.62-.78,2.1-.8,4.2-1.58,6.32-2.34,1.4-.5,2.85-.76,4.33-.92.94-.1,1.87-.34,2.81-.5.35-.06.75.04,1.07-.08.62-.24.59.25.74.56.23.49-.21.47-.46.59-1.3.6-2.66.91-4.1,1.03-.99.08-1.97.4-2.93.71-2.08.67-4.17,1.33-6.2,2.13-1.56.62-3.07,1.38-4.53,2.21-1.52.86-2.67,2.12-3.78,3.52-.84,1.06-1.51,2.24-2.31,3.31-.83,1.12-1.26,2.54-1.91,3.81-.21.42-.53.79-.81,1.17-.15.2-.41.36-.48.58-.29.91-.54,1.83-.77,2.76-.19.77-.37,1.56-.46,2.35-.17,1.53-.21,3.08-.43,4.6-.25,1.71.15,3.32.43,4.96.22,1.26.57,2.49.69,3.78.09.93.43,1.88.88,2.71,1.14,2.1,2.59,4,4.08,5.87.4.5.94.88,1.42,1.32.21.19.61.36.63.56.11,1.3,1.19,1.62,2.04,2.21.5.35.95.78,1.43,1.16,1.22.94,2.64,1.57,3.93,2.38,1.9,1.19,3.99,1.93,5.97,2.94,1.17.6,2.46.83,3.7,1.23,1.02.33,2.05.61,3.08.9,1.42.4,2.84.54,4.28.4,1.77-.16,3.53-.41,5.29-.63,1.03-.12,1.95-.6,2.92-.91,1.4-.45,2.84-.77,4.23-1.24,1.04-.35,2.09-.75,3.03-1.31,1.14-.67,2.35-1.22,3.49-1.89,1.36-.81,2.54-1.79,3.74-2.77,1.06-.87,1.98-1.87,2.94-2.84.99-.99,1.95-2.01,2.86-3.07.57-.65,1.13-1.31,1.66-2,.78-1,1.45-2.08,2.34-3,.3-.32.43-.81.63-1.22.57-1.12,1.39-2.05,2.22-2.97.12-.13.3-.25.35-.41.31-1.01,1.18-1.45,1.94-2.02.17-.13.41-.26.46-.44.27-1.05,1.26-1.39,1.95-2.02.5-.46,1.06-.86,1.62-1.25.55-.38,1.03-.8,1.77-.95.91-.18,1.73-.75,2.62-1.08.84-.31,1.73-.51,2.58-.8.43-.14.82-.37,1.23-.56.13-.06.26-.15.39-.21,1.55-.58,3.11-1.14,4.66-1.73,2.39-.91,4.51-2.28,6.42-3.96.13-.11.21-.33.22-.51.04-.67.24-1.2.67-1.79.76-1.05,1.27-2.29,1.37-3.65.16-2.1-.31-4.12-.71-6.15-.03-.15-.19-.35-.14-.43.62-.9-.31-1.24-.71-1.47-.98-.56-1.68-1.24-2.15-2.29-.3-.65-.88-1.25-1.47-1.69-2.1-1.55-4.45-2.33-7.12-2.35-2.46-.02-4.79.56-7.13,1.12-2.22.53-4.41,1.16-6.71,1.31-.78.05-1.54.49-2.38.29-.14-.03-.3-.03-.42-.08-.31-.13-.78-.23-.68-.64.05-.23.46-.47.74-.52,1.14-.22,2.31-.31,3.45-.55,1.6-.33,3.18-.74,4.77-1.11.98-.23,1.95-.48,2.93-.7.53-.12,1.1-.12,1.62-.3,1.38-.47,2.81-.35,4.21-.47,1.59-.14,3.15.21,4.7.52.43.09.78.53,1.2.77,1.02.57,2.05,1.12,3.11,1.76M149.68,736.6c-.04.06-.07.13-.11.19.07-.05.14-.09.32-.09.04-.06.07-.13.11-.19-.07.05-.14.09-.32.09M196.64,706.78c-.66.1-1.11.58-1.61.95-.75.56-1.5,1.11-2.22,1.7-.38.31-.33.62.09.74.22.06.45.1.68.15-.22.12-.43.26-.65.37-.65.3-1.18.89-1.99.84-.05,0-.17.17-.17.17.67.75-.32.79-.48.81-.68.09-.85.36-.63.99.04.13-.08.45-.11.44-1.05-.08-1.23.76-1.59,1.44-.49.93-.9,1.94-1.56,2.74-.53.65-.88,1.34-1.18,2.09-.09.23-.29.41-.46.6-.55.61-1.11,1.22-1.67,1.83-.17.19-.36.54-.51.52-.74-.08-.7.52-.89.92-.07.14.04.41-.05.5-.65.62-1.32,1.21-1.99,1.8-.19.17-.39.32-.55.51-.24.27-.43.59-.7.82-.69.58-1.43,1.09-2.1,1.68-.36.31-.61.72-1.18.61-.11-.02-.41.26-.39.31.19.49-.31.55-.49.67-.81.51-1.7.89-2.52,1.39-1.93,1.18-4.04,1.96-6.1,2.85-1.28.56-2.65.94-4,1.32-1.28.36-2.59.66-3.9.92-.92.18-1.86.28-2.8.34-1.4.09-2.8.2-4.19.13-1.07-.05-2.14-.33-3.2-.55-.82-.17-1.64-.37-2.45-.62-.86-.26-1.68-.68-2.55-.89-1.26-.31-2.43-.77-3.57-1.38-2.02-1.09-4.1-2.05-6.13-3.11-.65-.34-1.23-.8-1.82-1.24-.58-.43-1.11-.93-1.68-1.36-.16-.12-.42-.13-.63-.19.07.21.1.46.22.63.36.49.76.95,1.15,1.42.79.97,1.72,1.87,2.34,2.94.66,1.14,1.5,2.13,2.27,3.17.98,1.32,2.2,2.46,3.6,3.22,1.73.94,3.54,1.77,5.45,2.38,1.53.49,3.07.6,4.6.85,2.37.4,4.72.06,7.1-.08,2.2-.13,4.19-.91,6.27-1.38,1-.23,1.96-.68,2.93-1.06.88-.35,1.73-.77,2.61-1.13.89-.36,1.82-.63,2.7-1.02.74-.32,1.41-.82,2.17-1.12.91-.36,1.71-.86,2.46-1.46,1.38-1.08,2.81-2.11,4-3.41.36-.4.69-.83,1.03-1.25,1.26-1.55,2.63-3.03,2.9-5.14.02-.14.12-.29.22-.39.68-.61,1.04-1.42,1.5-2.18.5-.82.9-1.83,2.1-1.97.16-.02.32-.17.44-.3.62-.7,1.23-1.4,1.85-2.11.28-.33.68-.6.83-.98.62-1.47,1.85-2.44,2.91-3.51.94-.95,1.85-1.92,2.64-2.99,1.22-1.65,2.66-2.97,4.57-3.76.66-.27,1.33-.54,1.94-.91,1.17-.73,2.27-1.56,3.44-2.28,1.07-.66,2.08-1.43,3.33-1.8.58-.17,1.09-.6,1.61-.93.09-.06.1-.24.14-.36-.13,0-.28-.07-.39-.02-1.82.77-3.61,1.6-5.45,2.32-2.44.96-4.91,1.83-7.52,2.8M210.67,701.59c-.03-.14-.06-.29-.1-.43-.09.03-.18.06-.26.1.07.13.14.26.36.33M131.38,728.82s-.02-.07-.04-.1c-.01-.02-.04-.03-.06-.04-.04.14-.08.28-.12.42.1-.04.19-.08.23-.28M145.44,743.6c-.07-.03-.13-.08-.2-.09-.12-.02-.24-.02-.37-.02.07.07.14.17.22.2.12.05.27.05.34-.09M137.75,732.78c.1-.04.2-.07.3-.11-.1-.08-.19-.16-.29-.24-.06.14-.11.28-.02.36M146.22,735.78c.1.02.21.04.31.06-.04-.07-.09-.22-.11-.21-.14.04-.35-.43-.21.15M130.58,732.8c.1.08.2.16.3.24,0,0,.06-.07.1-.11-.08-.06-.16-.12-.4-.12M126.38,723.84s-.1.06-.14.09c.07.02.13.04.14-.09M156.49,736.53s-.06-.1-.09-.14c-.02.07-.04.13.09.14M157.22,736.61s-.06-.1-.09-.14c-.02.07-.04.13.09.14M161.96,735.21s.06.1.09.14c.02-.07.04-.13-.09-.14Z"/>
    <path class="st0" d="M132.71,723.17c.65,1.19,1.82,1.68,2.68,2.49.51.47,1.2.74,1.8,1.12.44.27.91.51,1.29.86,1.07.99,2.44,1.46,3.75,1.9,1.31.44,2.51,1.1,3.8,1.53,1.28.43,2.6.86,3.93,1.01,1.03.12,1.98.47,2.97.69.54.12,1.01.35,1.62.22.58-.12,1.21.08,1.82.03.87-.07,1.73-.23,2.59-.37.19-.03.38-.22.54-.18.92.19,1.68-.2,2.49-.56.68-.31,1.45-.41,2.16-.66,1.3-.45,2.53-1.04,3.61-1.94.62-.52,1.46-.61,2.13-1.18.93-.78,1.89-1.54,2.81-2.34.13-.12.28-.26.45-.29.09-.02.33.22.32.25-.11.23-.24.47-.43.63-.83.74-1.69,1.44-2.52,2.17-.48.43-.99.76-1.61.95-.31.1-.6.29-.86.49-1.9,1.47-4.06,2.36-6.38,2.91-.2.05-.37.23-.57.3-.31.11-.62.22-.94.27-.46.07-.86.16-1.31.38-.62.3-1.41.26-2.14.34-.69.08-1.37.22-2.05-.14-.15-.08-.45.11-.68.17-.34.1-.7.3-1.02.26-.54-.07-1.1-.22-1.59-.46-1.21-.61-2.5-.84-3.83-1.06-1.13-.18-2.2-.76-3.29-1.17-1.1-.41-2.2-.81-3.28-1.26-1.49-.62-2.82-1.54-4.2-2.37-1.34-.8-2.55-1.71-3.66-2.78-1.58-1.51-3.43-2.75-4.78-4.5-.89-1.15-1.89-2.23-2.43-3.6-.46-1.18-.95-2.36-1.31-3.58-.58-1.93-.85-3.93-.76-5.93.04-.82.6-1.64.99-2.42.09-.18.48-.26.73-.27.08,0,.25.39.24.59-.03.61,0,1.27-.23,1.81-.34.8-.14,1.58-.12,2.37.01.58.18,1.15.27,1.73.02.1-.08.24-.04.32.86,1.73.53,3.91,1.99,5.41.08,1.24,1.18,1.84,1.76,2.77.56.9,1.36,1.66,2.11,2.43.28.28.72.41,1.19.66Z"/>
    <path class="st0" d="M165.77,678.52c-1.45-.69-2.92-.95-4.36-1.21-1.4-.25-2.79-.49-4.16-.89-1.29-.38-2.63-.43-3.96-.2-.4.07-.79.18-1.19.26-.23.04-.48.36-.68-.05-.18-.37-.11-.66.26-.84.57-.28,1.14-.72,1.73-.78,1.21-.12,2.43-.52,3.65-.16,2.13.64,4.38.61,6.51,1.28,1.85.58,3.75,1.08,5.63,1.56,1.87.47,3.8.74,5.76.71.74-.01,1.51-.22,2.26.17.25.13.64.04.95-.04,1.72-.39,3.44.04,5.16-.08.55-.04,1.13.27,1.7.43.09.03.21.14.21.22,0,.08-.11.23-.19.24-.9.21-1.8.5-2.71.57-1.72.13-3.46.07-5.17.4-.69.13-1.43-.02-2.14-.06-1.43-.09-2.87-.08-4.28-.31-1.41-.23-2.86-.38-4.16-1.1-.2-.11-.49-.07-.85-.15Z"/>
    <path class="st0" d="M132.33,687.12c.26-.1.44-.22.62-.21.17,0,.43.08.5.21.49.89.35,1.32-.6,1.9-.56.35-1.17.62-1.71,1-.4.29-.81.63-1.06,1.05-.85,1.38-1.45,2.9-2.46,4.19-.08,1.59-1.41,2.75-1.5,4.34-.01.25-.18.52-.33.73-.23.32-.79.29-.94-.08-.15-.37-.37-.88-.22-1.16.28-.53.3-1.13.66-1.67.48-.72.78-1.65.84-2.51.03-.51.43-.53.55-.86.29-.8.64-1.58,1.06-2.32.6-1.06,1.27-2.09,1.94-3.11.13-.19.42-.28.64-.4.64-.36,1.29-.71,2.01-1.1Z"/>
    <path class="st0" d="M206.1,698.02c.48-.18.87-.37,1.28-.45.2-.04.44.15.66.24-.13.11-.25.26-.4.34-1.51.74-3.01,1.51-4.54,2.19-.75.33-1.6.46-2.38.74-.53.19-1,.5-1.52.72-.6.25-1.22.46-1.83.68-1.43.52-2.8,1.15-3.87,2.3-.8.87-1.89,1.34-2.88,1.95-.28.17-.57.34-.86.49-.32.16-.59.09-.75-.25-.14-.28-.09-.41.22-.62,1.89-1.29,3.61-2.86,5.79-3.69.54-.21.75-.88,1.5-.84.54.02,1.1-.29,1.63-.5.55-.22,1.07-.56,1.63-.76.96-.34,1.95-.59,2.91-.92.45-.16.86-.44,1.3-.64.68-.32,1.37-.63,2.13-.97Z"/>
    <path class="st0" d="M218.75,685.68c-.07,0-.15-.05-.16-.1-.03-.18-.04-.36-.05-.53,0-.02.11-.04.17-.06.02.21.04.43.04.7Z"/>
    <path class="st0" d="M219.1,688.26c.04.09.05.23.07.37-.05,0-.1-.01-.16-.02.02-.1.04-.2.09-.35Z"/>
    <path class="st0" d="M135.22,684.74c-.1.05-.22.03-.35,0,0,0,.02-.1.02-.15.1.02.2.04.32.14Z"/>
    <path class="st0" d="M219.14,688.16c-.07-.02-.12-.09-.16-.16.06.04.13.07.16.16Z"/>
    <path class="st0" d="M172.61,683.26c.05.04.03.1.01.17-.03-.05-.06-.1-.01-.17Z"/>
    <path class="st0" d="M218.7,685.78c.07.02.12.09.16.16-.06-.04-.13-.07-.16-.16Z"/>
    <path class="st0" d="M189.13,714.64c-.14.46-.36.95-.58,1.44.17-.47.33-.94.58-1.44Z"/>
  </g>
</svg>